# MagicaVoxel @ Ephtracy

# group
o 

# material
mtllib button.mtl
usemtl palette

# normals
vn -1 0 0
vn 1 0 0
vn 0 0 1
vn 0 0 -1
vn 0 -1 0
vn 0 1 0

# texcoords
vt 0.845703 0.5
vt 0.876953 0.5
vt 0.912109 0.5
vt 0.923828 0.5
vt 0.935547 0.5
vt 0.951172 0.5

# verts
v -0.7 0.1 0.5
v -0.7 0.1 0.4
v -0.7 0.1 0.1
v -0.7 0.1 -0.1
v -0.7 0.1 -0.2
v -0.7 0.1 -0.4
v -0.7 0.1 -0.5
v -0.7 0.2 0.5
v -0.7 0.2 0.4
v -0.7 0.2 0.1
v -0.7 0.2 -0.1
v -0.7 0.2 -0.2
v -0.7 0.2 -0.3
v -0.7 0.2 -0.4
v -0.7 0.2 -0.5
v -0.7 0.3 -0.3
v -0.7 0.3 -0.4
v -0.7 0.3 -0.5
v -0.7 0.4 0.4
v -0.7 0.4 0.3
v -0.7 0.4 -0.4
v -0.7 0.4 -0.5
v -0.7 0.5 0.4
v -0.7 0.5 0.3
v -0.7 0.5 -0.4
v -0.7 0.5 -0.5
v -0.7 0.8 0.5
v -0.7 0.8 0.4
v -0.7 1 -0.4
v -0.7 1 -0.5
v -0.7 1.1 -0.4
v -0.7 1.1 -0.5
v -0.7 1.2 0.5
v -0.7 1.2 0.4
v -0.7 1.3 -0.4
v -0.7 1.3 -0.5
v -0.7 1.6 0.5
v -0.7 1.6 0.4
v -0.7 1.6 -0.3
v -0.7 1.6 -0.4
v -0.7 1.8 0.5
v -0.7 1.8 0.4
v -0.7 1.8 0.1
v -0.7 1.8 -0.3
v -0.7 1.8 -0.4
v -0.7 1.8 -0.5
v -0.7 1.9 0.5
v -0.7 1.9 0.1
v -0.7 1.9 -0.4
v -0.7 1.9 -0.5
v -0.6 0 0.4
v -0.6 0 0.2
v -0.6 0 -0.2
v -0.6 0 -0.4
v -0.6 0.1 0.4
v -0.6 0.1 0.2
v -0.6 0.1 -0.2
v -0.6 0.1 -0.4
v -0.5 1.9 0.2
v -0.5 1.9 -0.2
v -0.5 2 0.2
v -0.5 2 -0.2
v -0.4 1.9 0.3
v -0.4 1.9 0.2
v -0.4 1.9 -0.2
v -0.4 1.9 -0.3
v -0.4 2 0.3
v -0.4 2 0.2
v -0.4 2 -0.2
v -0.4 2 -0.3
v -0.4 2.1 0.2
v -0.4 2.1 -0.2
v 0 0 0.4
v 0 0 0.2
v 0 0 -0.2
v 0 0 -0.4
v 0 0.1 0.4
v 0 0.1 0.2
v 0 0.1 -0.2
v 0 0.1 -0.4
v -0.4 0 0.4
v -0.4 0 0.2
v -0.4 0 -0.2
v -0.4 0 -0.4
v -0.4 0.1 0.4
v -0.4 0.1 0.2
v -0.4 0.1 -0.2
v -0.4 0.1 -0.4
v 0 1.9 0.3
v 0 1.9 0.2
v 0 1.9 -0.2
v 0 1.9 -0.3
v 0 2 0.3
v 0 2 0.2
v 0 2 -0.2
v 0 2 -0.3
v 0 2.1 0.2
v 0 2.1 -0.2
v 0.1 1.9 0.2
v 0.1 1.9 -0.2
v 0.1 2 0.2
v 0.1 2 -0.2
v 0.2 0 0.4
v 0.2 0 0.2
v 0.2 0 -0.2
v 0.2 0 -0.4
v 0.2 0.1 0.4
v 0.2 0.1 0.2
v 0.2 0.1 -0.2
v 0.2 0.1 -0.4
v 0.3 0.1 0.5
v 0.3 0.1 0.4
v 0.3 0.1 -0.1
v 0.3 0.1 -0.5
v 0.3 0.2 0.5
v 0.3 0.2 0.4
v 0.3 0.2 0.1
v 0.3 0.2 -0.1
v 0.3 0.2 -0.2
v 0.3 0.3 0.1
v 0.3 0.3 -0.1
v 0.3 0.3 -0.2
v 0.3 0.3 -0.4
v 0.3 0.4 0.3
v 0.3 0.4 0.2
v 0.3 0.4 -0.4
v 0.3 0.4 -0.5
v 0.3 1.2 0.2
v 0.3 1.2 0.1
v 0.3 1.6 0.3
v 0.3 1.6 0.2
v 0.3 1.8 0.5
v 0.3 1.8 0.4
v 0.3 1.8 -0.3
v 0.3 1.8 -0.5
v 0.3 1.9 0.5
v 0.3 1.9 0.4
v 0.3 1.9 0.2
v 0.3 1.9 0.1
v 0.3 1.9 -0.3
v 0.3 1.9 -0.5
v 0.6 0.2 0.1
v 0.6 0.2 -0.1
v 0.6 0.3 0.1
v 0.6 0.3 -0.1
v -0.7 0.1 0.5
v -0.7 0.2 0.5
v -0.7 0.8 0.5
v -0.7 1.2 0.5
v -0.7 1.6 0.5
v -0.7 1.8 0.5
v -0.7 1.9 0.5
v -0.6 0.1 0.5
v -0.6 0.2 0.5
v -0.6 0.8 0.5
v -0.6 1.2 0.5
v -0.6 1.4 0.5
v -0.6 1.6 0.5
v -0.6 1.8 0.5
v -0.6 1.9 0.5
v -0.5 1.4 0.5
v -0.5 1.5 0.5
v -0.4 0.1 0.5
v -0.4 0.2 0.5
v -0.4 1.5 0.5
v -0.4 1.6 0.5
v -0.3 1.6 0.5
v -0.3 1.7 0.5
v -0.2 0.2 0.5
v -0.2 0.3 0.5
v -0.2 0.5 0.5
v -0.2 0.6 0.5
v -0.1 0.2 0.5
v -0.1 0.3 0.5
v -0.1 0.5 0.5
v -0.1 0.6 0.5
v 0 0.1 0.5
v 0 0.2 0.5
v 0.2 0.1 0.5
v 0.2 0.2 0.5
v 0.2 1.7 0.5
v 0.2 1.8 0.5
v 0.3 0.1 0.5
v 0.3 0.2 0.5
v 0.3 1.8 0.5
v 0.3 1.9 0.5
v -0.6 0 0.4
v -0.6 0.1 0.4
v -0.4 0 0.4
v -0.4 0.1 0.4
v 0 0 0.4
v 0 0.1 0.4
v 0.2 0 0.4
v 0.2 0.1 0.4
v -0.4 1.9 0.3
v -0.4 2 0.3
v 0 1.9 0.3
v 0 2 0.3
v -0.5 1.9 0.2
v -0.5 2 0.2
v -0.4 1.9 0.2
v -0.4 2 0.2
v -0.4 2.1 0.2
v 0 1.9 0.2
v 0 2 0.2
v 0 2.1 0.2
v 0.1 1.9 0.2
v 0.1 2 0.2
v 0.3 0.2 0.1
v 0.3 0.3 0.1
v 0.6 0.2 0.1
v 0.6 0.3 0.1
v -0.6 0 -0.2
v -0.6 0.1 -0.2
v -0.4 0 -0.2
v -0.4 0.1 -0.2
v 0 0 -0.2
v 0 0.1 -0.2
v 0.2 0 -0.2
v 0.2 0.1 -0.2
v -0.6 0 0.2
v -0.6 0.1 0.2
v -0.4 0 0.2
v -0.4 0.1 0.2
v 0 0 0.2
v 0 0.1 0.2
v 0.2 0 0.2
v 0.2 0.1 0.2
v 0.3 0.2 -0.1
v 0.3 0.3 -0.1
v 0.6 0.2 -0.1
v 0.6 0.3 -0.1
v -0.5 1.9 -0.2
v -0.5 2 -0.2
v -0.4 1.9 -0.2
v -0.4 2 -0.2
v -0.4 2.1 -0.2
v 0 1.9 -0.2
v 0 2 -0.2
v 0 2.1 -0.2
v 0.1 1.9 -0.2
v 0.1 2 -0.2
v -0.4 1.9 -0.3
v -0.4 2 -0.3
v 0 1.9 -0.3
v 0 2 -0.3
v -0.6 0 -0.4
v -0.6 0.1 -0.4
v -0.4 0 -0.4
v -0.4 0.1 -0.4
v 0 0 -0.4
v 0 0.1 -0.4
v 0.2 0 -0.4
v 0.2 0.1 -0.4
v -0.7 0.1 -0.5
v -0.7 0.2 -0.5
v -0.7 0.3 -0.5
v -0.7 0.4 -0.5
v -0.7 0.5 -0.5
v -0.7 1 -0.5
v -0.7 1.1 -0.5
v -0.7 1.3 -0.5
v -0.7 1.8 -0.5
v -0.7 1.9 -0.5
v -0.6 0.1 -0.5
v -0.6 0.2 -0.5
v -0.6 0.3 -0.5
v -0.6 0.4 -0.5
v -0.6 0.5 -0.5
v -0.6 1 -0.5
v -0.6 1.1 -0.5
v -0.6 1.3 -0.5
v -0.6 1.7 -0.5
v -0.6 1.8 -0.5
v -0.6 1.9 -0.5
v -0.5 1.7 -0.5
v -0.5 1.8 -0.5
v -0.1 0.2 -0.5
v -0.1 0.3 -0.5
v 0 0.2 -0.5
v 0 0.3 -0.5
v 0 1.8 -0.5
v 0 1.9 -0.5
v 0.2 0.1 -0.5
v 0.2 0.4 -0.5
v 0.2 1.8 -0.5
v 0.2 1.9 -0.5
v 0.3 0.1 -0.5
v 0.3 0.4 -0.5
v 0.3 1.8 -0.5
v 0.3 1.9 -0.5
v -0.6 0 0.4
v -0.4 0 0.4
v 0 0 0.4
v 0.2 0 0.4
v -0.6 0 0.2
v -0.4 0 0.2
v 0 0 0.2
v 0.2 0 0.2
v -0.6 0 -0.2
v -0.4 0 -0.2
v 0 0 -0.2
v 0.2 0 -0.2
v -0.6 0 -0.4
v -0.4 0 -0.4
v 0 0 -0.4
v 0.2 0 -0.4
v -0.7 0.1 0.5
v -0.6 0.1 0.5
v -0.4 0.1 0.5
v 0 0.1 0.5
v 0.2 0.1 0.5
v 0.3 0.1 0.5
v -0.7 0.1 0.4
v -0.6 0.1 0.4
v -0.4 0.1 0.4
v 0 0.1 0.4
v 0.2 0.1 0.4
v 0.3 0.1 0.4
v -0.6 0.1 0.2
v -0.4 0.1 0.2
v 0 0.1 0.2
v 0.2 0.1 0.2
v -0.7 0.1 0.1
v -0.6 0.1 0.1
v -0.7 0.1 -0.1
v -0.6 0.1 -0.1
v 0.2 0.1 -0.1
v 0.3 0.1 -0.1
v -0.7 0.1 -0.2
v -0.6 0.1 -0.2
v -0.4 0.1 -0.2
v 0 0.1 -0.2
v 0.2 0.1 -0.2
v -0.7 0.1 -0.4
v -0.6 0.1 -0.4
v -0.4 0.1 -0.4
v 0 0.1 -0.4
v 0.2 0.1 -0.4
v -0.7 0.1 -0.5
v -0.6 0.1 -0.5
v 0.2 0.1 -0.5
v 0.3 0.1 -0.5
v 0.3 0.2 0.1
v 0.6 0.2 0.1
v 0.3 0.2 -0.1
v 0.6 0.2 -0.1
v 0.3 0.3 0.1
v 0.6 0.3 0.1
v 0.3 0.3 -0.1
v 0.6 0.3 -0.1
v -0.7 1.9 0.5
v -0.6 1.9 0.5
v 0.3 1.9 0.5
v -0.6 1.9 0.4
v 0.3 1.9 0.4
v -0.4 1.9 0.3
v 0 1.9 0.3
v -0.5 1.9 0.2
v -0.4 1.9 0.2
v 0 1.9 0.2
v 0.1 1.9 0.2
v 0.3 1.9 0.2
v -0.7 1.9 0.1
v -0.6 1.9 0.1
v 0.2 1.9 0.1
v 0.3 1.9 0.1
v -0.5 1.9 -0.2
v -0.4 1.9 -0.2
v 0 1.9 -0.2
v 0.1 1.9 -0.2
v 0.2 1.9 -0.2
v -0.6 1.9 -0.3
v -0.5 1.9 -0.3
v -0.4 1.9 -0.3
v 0 1.9 -0.3
v 0.2 1.9 -0.3
v 0.3 1.9 -0.3
v -0.7 1.9 -0.4
v -0.6 1.9 -0.4
v -0.5 1.9 -0.4
v 0 1.9 -0.4
v -0.7 1.9 -0.5
v -0.6 1.9 -0.5
v 0 1.9 -0.5
v 0.2 1.9 -0.5
v 0.3 1.9 -0.5
v -0.4 2 0.3
v 0 2 0.3
v -0.5 2 0.2
v -0.4 2 0.2
v 0 2 0.2
v 0.1 2 0.2
v -0.5 2 -0.2
v -0.4 2 -0.2
v 0 2 -0.2
v 0.1 2 -0.2
v -0.4 2 -0.3
v 0 2 -0.3
v -0.4 2.1 0.2
v 0 2.1 0.2
v -0.4 2.1 -0.2
v 0 2.1 -0.2

# faces
f 8/5/1 2/5/1 1/5/1
f 9/2/1 3/2/1 2/2/1
f 9/5/1 2/5/1 8/5/1
f 10/5/1 4/5/1 3/5/1
f 10/2/1 3/2/1 9/2/1
f 11/2/1 5/2/1 4/2/1
f 11/5/1 4/5/1 10/5/1
f 12/5/1 6/5/1 5/5/1
f 12/2/1 5/2/1 11/2/1
f 13/5/1 6/5/1 12/5/1
f 14/1/1 7/1/1 6/1/1
f 14/5/1 6/5/1 13/5/1
f 15/1/1 7/1/1 14/1/1
f 16/2/1 13/2/1 12/2/1
f 16/2/1 9/2/1 8/2/1
f 16/5/1 15/5/1 14/5/1
f 16/5/1 14/5/1 13/5/1
f 16/2/1 12/2/1 11/2/1
f 16/2/1 11/2/1 10/2/1
f 16/2/1 10/2/1 9/2/1
f 17/5/1 15/5/1 16/5/1
f 18/5/1 15/5/1 17/5/1
f 19/2/1 16/2/1 8/2/1
f 19/2/1 17/2/1 16/2/1
f 20/2/1 17/2/1 19/2/1
f 21/1/1 18/1/1 17/1/1
f 21/2/1 17/2/1 20/2/1
f 22/1/1 18/1/1 21/1/1
f 23/1/1 20/1/1 19/1/1
f 23/2/1 19/2/1 8/2/1
f 24/2/1 21/2/1 20/2/1
f 24/1/1 20/1/1 23/1/1
f 25/5/1 22/5/1 21/5/1
f 25/2/1 21/2/1 24/2/1
f 26/5/1 22/5/1 25/5/1
f 27/2/1 24/2/1 23/2/1
f 27/2/1 23/2/1 8/2/1
f 27/2/1 26/2/1 25/2/1
f 27/2/1 25/2/1 24/2/1
f 28/2/1 26/2/1 27/2/1
f 29/2/1 26/2/1 28/2/1
f 30/2/1 26/2/1 29/2/1
f 31/2/1 29/2/1 28/2/1
f 31/5/1 30/5/1 29/5/1
f 32/5/1 30/5/1 31/5/1
f 33/5/1 28/5/1 27/5/1
f 34/2/1 31/2/1 28/2/1
f 34/5/1 28/5/1 33/5/1
f 34/2/1 32/2/1 31/2/1
f 35/2/1 34/2/1 33/2/1
f 35/2/1 32/2/1 34/2/1
f 36/2/1 32/2/1 35/2/1
f 37/2/1 35/2/1 33/2/1
f 38/2/1 35/2/1 37/2/1
f 39/2/1 35/2/1 38/2/1
f 40/5/1 36/5/1 35/5/1
f 40/2/1 35/2/1 39/2/1
f 41/5/1 38/5/1 37/5/1
f 42/2/1 39/2/1 38/2/1
f 42/5/1 38/5/1 41/5/1
f 43/2/1 39/2/1 42/2/1
f 44/5/1 40/5/1 39/5/1
f 44/2/1 39/2/1 43/2/1
f 45/5/1 36/5/1 40/5/1
f 45/5/1 40/5/1 44/5/1
f 46/5/1 36/5/1 45/5/1
f 47/2/1 43/2/1 42/2/1
f 47/2/1 42/2/1 41/2/1
f 48/5/1 44/5/1 43/5/1
f 48/2/1 43/2/1 47/2/1
f 48/5/1 45/5/1 44/5/1
f 49/1/1 46/1/1 45/1/1
f 49/5/1 45/5/1 48/5/1
f 50/1/1 46/1/1 49/1/1
f 55/4/1 52/4/1 51/4/1
f 56/4/1 52/4/1 55/4/1
f 57/4/1 54/4/1 53/4/1
f 58/4/1 54/4/1 57/4/1
f 61/4/1 60/4/1 59/4/1
f 62/4/1 60/4/1 61/4/1
f 67/4/1 64/4/1 63/4/1
f 68/4/1 64/4/1 67/4/1
f 69/4/1 66/4/1 65/4/1
f 70/4/1 66/4/1 69/4/1
f 71/3/1 69/3/1 68/3/1
f 72/3/1 69/3/1 71/3/1
f 77/4/1 74/4/1 73/4/1
f 78/4/1 74/4/1 77/4/1
f 79/4/1 76/4/1 75/4/1
f 80/4/1 76/4/1 79/4/1
f 81/4/2 82/4/2 85/4/2
f 85/4/2 82/4/2 86/4/2
f 83/4/2 84/4/2 87/4/2
f 87/4/2 84/4/2 88/4/2
f 89/4/2 90/4/2 93/4/2
f 93/4/2 90/4/2 94/4/2
f 91/4/2 92/4/2 95/4/2
f 95/4/2 92/4/2 96/4/2
f 94/3/2 95/3/2 97/3/2
f 97/3/2 95/3/2 98/3/2
f 99/4/2 100/4/2 101/4/2
f 101/4/2 100/4/2 102/4/2
f 103/4/2 104/4/2 107/4/2
f 107/4/2 104/4/2 108/4/2
f 105/4/2 106/4/2 109/4/2
f 109/4/2 106/4/2 110/4/2
f 111/5/2 112/5/2 115/5/2
f 112/2/2 113/2/2 116/2/2
f 115/5/2 112/5/2 116/5/2
f 116/2/2 113/2/2 117/2/2
f 113/5/2 114/5/2 118/5/2
f 117/2/2 113/2/2 118/2/2
f 118/5/2 114/5/2 119/5/2
f 116/2/2 117/2/2 120/2/2
f 115/2/2 116/2/2 120/2/2
f 118/2/2 119/2/2 121/2/2
f 119/5/2 114/5/2 122/5/2
f 121/2/2 119/2/2 122/2/2
f 122/5/2 114/5/2 123/5/2
f 120/2/2 121/2/2 124/2/2
f 115/2/2 120/2/2 124/2/2
f 122/2/2 123/2/2 124/2/2
f 121/2/2 122/2/2 124/2/2
f 124/2/2 123/2/2 125/2/2
f 123/5/2 114/5/2 126/5/2
f 125/2/2 123/2/2 126/2/2
f 126/5/2 114/5/2 127/5/2
f 124/5/2 125/5/2 128/5/2
f 125/2/2 126/2/2 128/2/2
f 126/2/2 127/2/2 128/2/2
f 128/2/2 127/2/2 129/2/2
f 115/2/2 124/2/2 130/2/2
f 124/5/2 128/5/2 130/5/2
f 128/5/2 129/5/2 130/5/2
f 130/5/2 129/5/2 131/5/2
f 115/2/2 130/2/2 132/2/2
f 130/2/2 131/2/2 132/2/2
f 132/2/2 131/2/2 133/2/2
f 129/2/2 127/2/2 134/2/2
f 134/2/2 127/2/2 135/2/2
f 132/5/2 133/5/2 136/5/2
f 133/2/2 131/2/2 137/2/2
f 136/5/2 133/5/2 137/5/2
f 131/5/2 129/5/2 138/5/2
f 137/2/2 131/2/2 138/2/2
f 129/2/2 134/2/2 139/2/2
f 138/5/2 129/5/2 139/5/2
f 134/5/2 135/5/2 140/5/2
f 139/2/2 134/2/2 140/2/2
f 140/5/2 135/5/2 141/5/2
f 142/6/2 143/6/2 144/6/2
f 144/6/2 143/6/2 145/6/2
f 153/5/3 147/5/3 146/5/3
f 154/2/3 148/2/3 147/2/3
f 154/5/3 147/5/3 153/5/3
f 155/5/3 149/5/3 148/5/3
f 155/2/3 148/2/3 154/2/3
f 156/2/3 150/2/3 149/2/3
f 156/5/3 149/5/3 155/5/3
f 157/2/3 150/2/3 156/2/3
f 158/5/3 151/5/3 150/5/3
f 158/2/3 150/2/3 157/2/3
f 159/2/3 152/2/3 151/2/3
f 159/5/3 151/5/3 158/5/3
f 160/2/3 152/2/3 159/2/3
f 161/5/3 158/5/3 157/5/3
f 161/2/3 154/2/3 153/2/3
f 161/5/3 160/5/3 159/5/3
f 161/5/3 159/5/3 158/5/3
f 161/2/3 156/2/3 155/2/3
f 161/2/3 157/2/3 156/2/3
f 161/2/3 155/2/3 154/2/3
f 162/5/3 160/5/3 161/5/3
f 163/2/3 161/2/3 153/2/3
f 163/2/3 162/2/3 161/2/3
f 164/2/3 162/2/3 163/2/3
f 165/5/3 160/5/3 162/5/3
f 165/2/3 162/2/3 164/2/3
f 166/5/3 160/5/3 165/5/3
f 167/2/3 165/2/3 164/2/3
f 167/5/3 160/5/3 166/5/3
f 167/2/3 166/2/3 165/2/3
f 168/5/3 160/5/3 167/5/3
f 169/1/3 164/1/3 163/1/3
f 169/2/3 167/2/3 164/2/3
f 169/2/3 168/2/3 167/2/3
f 170/2/3 168/2/3 169/2/3
f 171/2/3 168/2/3 170/2/3
f 172/2/3 168/2/3 171/2/3
f 173/1/3 169/1/3 163/1/3
f 173/1/3 170/1/3 169/1/3
f 174/2/3 171/2/3 170/2/3
f 174/1/3 170/1/3 173/1/3
f 175/1/3 172/1/3 171/1/3
f 175/2/3 171/2/3 174/2/3
f 176/2/3 168/2/3 172/2/3
f 176/1/3 172/1/3 175/1/3
f 177/1/3 173/1/3 163/1/3
f 178/2/3 175/2/3 174/2/3
f 178/1/3 173/1/3 177/1/3
f 178/2/3 174/2/3 173/2/3
f 178/2/3 176/2/3 175/2/3
f 179/2/3 178/2/3 177/2/3
f 180/2/3 176/2/3 178/2/3
f 180/2/3 178/2/3 179/2/3
f 181/5/3 160/5/3 168/5/3
f 181/2/3 176/2/3 180/2/3
f 181/2/3 168/2/3 176/2/3
f 182/5/3 160/5/3 181/5/3
f 183/5/3 180/5/3 179/5/3
f 184/2/3 181/2/3 180/2/3
f 184/5/3 180/5/3 183/5/3
f 184/2/3 182/2/3 181/2/3
f 185/5/3 160/5/3 182/5/3
f 185/2/3 182/2/3 184/2/3
f 186/5/3 160/5/3 185/5/3
f 189/4/3 188/4/3 187/4/3
f 190/4/3 188/4/3 189/4/3
f 193/4/3 192/4/3 191/4/3
f 194/4/3 192/4/3 193/4/3
f 197/4/3 196/4/3 195/4/3
f 198/4/3 196/4/3 197/4/3
f 201/4/3 200/4/3 199/4/3
f 202/4/3 200/4/3 201/4/3
f 205/3/3 203/3/3 202/3/3
f 206/3/3 203/3/3 205/3/3
f 207/4/3 205/4/3 204/4/3
f 208/4/3 205/4/3 207/4/3
f 211/6/3 210/6/3 209/6/3
f 212/6/3 210/6/3 211/6/3
f 215/4/3 214/4/3 213/4/3
f 216/4/3 214/4/3 215/4/3
f 219/4/3 218/4/3 217/4/3
f 220/4/3 218/4/3 219/4/3
f 221/4/4 222/4/4 223/4/4
f 223/4/4 222/4/4 224/4/4
f 225/4/4 226/4/4 227/4/4
f 227/4/4 226/4/4 228/4/4
f 229/6/4 230/6/4 231/6/4
f 231/6/4 230/6/4 232/6/4
f 233/4/4 234/4/4 235/4/4
f 235/4/4 234/4/4 236/4/4
f 236/3/4 237/3/4 239/3/4
f 239/3/4 237/3/4 240/3/4
f 238/4/4 239/4/4 241/4/4
f 241/4/4 239/4/4 242/4/4
f 243/4/4 244/4/4 245/4/4
f 245/4/4 244/4/4 246/4/4
f 247/4/4 248/4/4 249/4/4
f 249/4/4 248/4/4 250/4/4
f 251/4/4 252/4/4 253/4/4
f 253/4/4 252/4/4 254/4/4
f 255/1/4 256/1/4 265/1/4
f 256/5/4 257/5/4 266/5/4
f 265/1/4 256/1/4 266/1/4
f 257/1/4 258/1/4 267/1/4
f 266/5/4 257/5/4 267/5/4
f 258/5/4 259/5/4 268/5/4
f 267/1/4 258/1/4 268/1/4
f 259/2/4 260/2/4 269/2/4
f 268/5/4 259/5/4 269/5/4
f 260/5/4 261/5/4 270/5/4
f 269/2/4 260/2/4 270/2/4
f 261/2/4 262/2/4 271/2/4
f 270/5/4 261/5/4 271/5/4
f 262/5/4 263/5/4 272/5/4
f 271/2/4 262/2/4 272/2/4
f 272/5/4 263/5/4 273/5/4
f 263/1/4 264/1/4 274/1/4
f 273/5/4 263/5/4 274/5/4
f 274/1/4 264/1/4 275/1/4
f 272/2/4 273/2/4 276/2/4
f 265/2/4 266/2/4 276/2/4
f 274/5/4 275/5/4 276/5/4
f 273/5/4 274/5/4 276/5/4
f 271/2/4 272/2/4 276/2/4
f 270/2/4 271/2/4 276/2/4
f 269/2/4 270/2/4 276/2/4
f 268/2/4 269/2/4 276/2/4
f 267/2/4 268/2/4 276/2/4
f 266/2/4 267/2/4 276/2/4
f 276/5/4 275/5/4 277/5/4
f 265/2/4 276/2/4 278/2/4
f 276/2/4 277/2/4 278/2/4
f 278/2/4 277/2/4 279/2/4
f 265/2/4 278/2/4 280/2/4
f 278/1/4 279/1/4 280/1/4
f 279/2/4 277/2/4 281/2/4
f 280/1/4 279/1/4 281/1/4
f 277/5/4 275/5/4 282/5/4
f 281/2/4 277/2/4 282/2/4
f 282/5/4 275/5/4 283/5/4
f 280/2/4 281/2/4 284/2/4
f 265/2/4 280/2/4 284/2/4
f 282/2/4 283/2/4 284/2/4
f 281/2/4 282/2/4 284/2/4
f 284/2/4 283/2/4 285/2/4
f 285/2/4 283/2/4 286/2/4
f 286/2/4 283/2/4 287/2/4
f 284/5/4 285/5/4 288/5/4
f 285/2/4 286/2/4 289/2/4
f 288/5/4 285/5/4 289/5/4
f 286/5/4 287/5/4 290/5/4
f 289/2/4 286/2/4 290/2/4
f 290/5/4 287/5/4 291/5/4
f 296/4/5 293/4/5 292/4/5
f 297/4/5 293/4/5 296/4/5
f 298/4/5 295/4/5 294/4/5
f 299/4/5 295/4/5 298/4/5
f 304/4/5 301/4/5 300/4/5
f 305/4/5 301/4/5 304/4/5
f 306/4/5 303/4/5 302/4/5
f 307/4/5 303/4/5 306/4/5
f 314/5/5 309/5/5 308/5/5
f 315/2/5 310/2/5 309/2/5
f 315/5/5 309/5/5 314/5/5
f 316/1/5 311/1/5 310/1/5
f 316/2/5 310/2/5 315/2/5
f 317/2/5 312/2/5 311/2/5
f 317/1/5 311/1/5 316/1/5
f 318/5/5 313/5/5 312/5/5
f 318/2/5 312/2/5 317/2/5
f 319/5/5 313/5/5 318/5/5
f 320/2/5 315/2/5 314/2/5
f 321/2/5 317/2/5 316/2/5
f 322/2/5 317/2/5 321/2/5
f 323/2/5 319/2/5 318/2/5
f 324/2/5 320/2/5 314/2/5
f 324/2/5 323/2/5 322/2/5
f 324/2/5 322/2/5 321/2/5
f 324/2/5 321/2/5 320/2/5
f 325/2/5 323/2/5 324/2/5
f 326/5/5 325/5/5 324/5/5
f 327/2/5 323/2/5 325/2/5
f 327/5/5 325/5/5 326/5/5
f 328/2/5 319/2/5 323/2/5
f 328/2/5 323/2/5 327/2/5
f 329/2/5 319/2/5 328/2/5
f 330/2/5 327/2/5 326/2/5
f 330/2/5 328/2/5 327/2/5
f 331/2/5 328/2/5 330/2/5
f 332/2/5 328/2/5 331/2/5
f 333/2/5 328/2/5 332/2/5
f 334/5/5 329/5/5 328/5/5
f 334/2/5 328/2/5 333/2/5
f 335/5/5 331/5/5 330/5/5
f 336/5/5 331/5/5 335/5/5
f 337/2/5 333/2/5 332/2/5
f 338/2/5 333/2/5 337/2/5
f 339/5/5 329/5/5 334/5/5
f 340/1/5 336/1/5 335/1/5
f 341/2/5 339/2/5 338/2/5
f 341/1/5 336/1/5 340/1/5
f 341/2/5 338/2/5 337/2/5
f 341/2/5 337/2/5 336/2/5
f 342/5/5 329/5/5 339/5/5
f 342/2/5 339/2/5 341/2/5
f 343/5/5 329/5/5 342/5/5
f 346/6/5 345/6/5 344/6/5
f 347/6/5 345/6/5 346/6/5
f 348/6/6 349/6/6 350/6/6
f 350/6/6 349/6/6 351/6/6
f 352/2/6 353/2/6 355/2/6
f 353/5/6 354/5/6 355/5/6
f 355/5/6 354/5/6 356/5/6
f 355/2/6 356/2/6 357/2/6
f 357/2/6 356/2/6 358/2/6
f 355/2/6 357/2/6 359/2/6
f 359/2/6 357/2/6 360/2/6
f 358/2/6 356/2/6 361/2/6
f 361/2/6 356/2/6 362/2/6
f 362/2/6 356/2/6 363/2/6
f 352/2/6 355/2/6 364/2/6
f 355/2/6 359/2/6 364/2/6
f 364/2/6 359/2/6 365/2/6
f 362/5/6 363/5/6 366/5/6
f 366/5/6 363/5/6 367/5/6
f 365/2/6 359/2/6 368/2/6
f 362/5/6 366/5/6 371/5/6
f 366/2/6 367/2/6 372/2/6
f 371/5/6 366/5/6 372/5/6
f 364/5/6 365/5/6 373/5/6
f 368/2/6 369/2/6 373/2/6
f 365/2/6 368/2/6 373/2/6
f 373/2/6 369/2/6 374/2/6
f 374/2/6 369/2/6 375/2/6
f 371/2/6 372/2/6 376/2/6
f 370/2/6 371/2/6 376/2/6
f 372/2/6 367/2/6 377/2/6
f 376/2/6 372/2/6 377/2/6
f 377/2/6 367/2/6 378/2/6
f 373/5/6 374/5/6 379/5/6
f 364/5/6 373/5/6 379/5/6
f 379/5/6 374/5/6 380/5/6
f 375/2/6 376/2/6 381/2/6
f 380/5/6 374/5/6 381/5/6
f 374/2/6 375/2/6 381/2/6
f 376/2/6 377/2/6 381/2/6
f 381/2/6 377/2/6 382/2/6
f 379/1/6 380/1/6 383/1/6
f 380/5/6 381/5/6 384/5/6
f 383/1/6 380/1/6 384/1/6
f 381/5/6 382/5/6 384/5/6
f 382/2/6 377/2/6 385/2/6
f 384/5/6 382/5/6 385/5/6
f 377/5/6 378/5/6 386/5/6
f 385/2/6 377/2/6 386/2/6
f 386/5/6 378/5/6 387/5/6
f 388/4/6 389/4/6 391/4/6
f 391/4/6 389/4/6 392/4/6
f 390/4/6 391/4/6 394/4/6
f 394/4/6 391/4/6 395/4/6
f 392/4/6 393/4/6 396/4/6
f 396/4/6 393/4/6 397/4/6
f 395/4/6 396/4/6 398/4/6
f 398/4/6 396/4/6 399/4/6
f 400/3/6 401/3/6 402/3/6
f 402/3/6 401/3/6 403/3/6
