# Blender 3.3.0
# www.blender.org
mtllib key.mtl
o key
v -0.000000 -0.500000 0.300000
v -0.000000 -0.600000 0.200000
v -0.000000 -0.600000 0.300000
v -0.000000 -0.500000 -0.100000
v -0.000000 -0.600000 -0.100000
v -0.000000 -0.600000 0.000000
v -0.000000 -0.600000 -0.200000
v -0.000000 -0.500000 -0.200000
v -0.000000 -0.600000 -0.300000
v -0.000000 -0.500000 -0.300000
v -0.000000 -0.400000 0.400000
v -0.000000 -0.500000 0.400000
v -0.000000 -0.400000 0.300000
v -0.000000 -0.400000 0.200000
v -0.000000 -0.600000 0.100000
v -0.000000 -0.400000 0.100000
v -0.000000 -0.400000 0.000000
v -0.000000 -0.400000 -0.100000
v -0.000000 -0.400000 -0.200000
v -0.000000 -0.400000 -0.300000
v -0.000000 -0.500000 -0.400000
v -0.000000 -0.400000 -0.400000
v -0.000000 -0.300000 0.400000
v -0.000000 -0.300000 0.300000
v -0.000000 -0.300000 0.000000
v -0.000000 -0.300000 -0.300000
v -0.000000 -0.300000 -0.400000
v -0.000000 -0.200000 0.400000
v -0.000000 -0.200000 0.300000
v -0.000000 -0.200000 0.000000
v -0.000000 -0.200000 -0.300000
v -0.000000 0.400000 0.400000
v -0.000000 0.400000 0.300000
v -0.000000 0.500000 0.400000
v -0.000000 0.500000 0.300000
v -0.000000 0.500000 0.000000
v -0.000000 0.500000 -0.300000
v -0.000000 0.500000 -0.400000
v -0.000000 0.600000 0.300000
v -0.000000 0.600000 0.000000
v -0.000000 0.600000 -0.300000
v 0.200000 -0.600000 0.300000
v 0.200000 -0.600000 0.200000
v 0.200000 -0.500000 0.300000
v 0.200000 -0.600000 0.100000
v 0.200000 -0.500000 0.200000
v 0.200000 -0.600000 0.000000
v 0.200000 -0.500000 0.100000
v 0.200000 -0.600000 -0.200000
v 0.200000 -0.600000 -0.300000
v 0.200000 -0.500000 -0.200000
v 0.200000 -0.600000 -0.100000
v 0.200000 -0.500000 -0.300000
v 0.200000 -0.500000 0.400000
v 0.200000 -0.400000 0.400000
v 0.200000 -0.400000 0.300000
v 0.200000 -0.400000 0.200000
v 0.200000 -0.400000 0.100000
v 0.200000 -0.400000 0.000000
v 0.200000 -0.400000 -0.100000
v 0.200000 -0.400000 -0.200000
v 0.200000 -0.500000 -0.400000
v 0.200000 -0.400000 -0.300000
v 0.200000 -0.400000 -0.400000
v 0.200000 -0.300000 0.400000
v 0.200000 -0.300000 0.300000
v 0.200000 -0.300000 0.000000
v 0.200000 -0.300000 -0.300000
v 0.200000 -0.300000 -0.400000
v 0.200000 -0.200000 0.400000
v 0.200000 -0.200000 0.300000
v 0.200000 -0.200000 0.000000
v 0.200000 -0.200000 -0.300000
v 0.200000 0.200000 -0.300000
v 0.200000 0.200000 -0.400000
v 0.200000 0.400000 -0.300000
v 0.200000 0.400000 -0.400000
v 0.200000 0.500000 0.400000
v 0.200000 0.500000 0.300000
v 0.200000 0.500000 0.100000
v 0.200000 0.500000 -0.300000
v 0.200000 0.500000 -0.400000
v 0.200000 0.600000 0.300000
v 0.200000 0.600000 0.100000
v 0.200000 0.600000 -0.300000
v 0.100000 -0.500000 0.400000
v -0.000000 -0.400000 0.400000
v -0.000000 -0.500000 0.400000
v 0.100000 -0.400000 0.400000
v -0.000000 -0.300000 0.400000
v 0.100000 0.400000 0.400000
v -0.000000 0.500000 0.400000
v -0.000000 0.400000 0.400000
v -0.000000 -0.200000 0.400000
v 0.100000 0.500000 0.400000
v 0.200000 -0.500000 0.400000
v 0.200000 -0.400000 0.400000
v 0.200000 -0.300000 0.400000
v 0.200000 -0.200000 0.400000
v 0.200000 0.500000 0.400000
v 0.100000 -0.600000 0.300000
v -0.000000 -0.500000 0.300000
v -0.000000 -0.600000 0.300000
v 0.100000 -0.500000 0.300000
v 0.100000 0.500000 0.300000
v -0.000000 0.600000 0.300000
v -0.000000 0.500000 0.300000
v 0.100000 0.600000 0.300000
v 0.200000 -0.600000 0.300000
v 0.200000 -0.500000 0.300000
v 0.200000 0.500000 0.300000
v 0.200000 0.600000 0.300000
v -0.000000 -0.600000 -0.300000
v -0.000000 -0.500000 -0.300000
v 0.100000 -0.600000 -0.300000
v 0.100000 -0.500000 -0.300000
v -0.000000 0.500000 -0.300000
v -0.000000 0.600000 -0.300000
v 0.100000 0.500000 -0.300000
v 0.100000 0.600000 -0.300000
v 0.200000 -0.600000 -0.300000
v 0.200000 -0.500000 -0.300000
v 0.200000 0.500000 -0.300000
v 0.200000 0.600000 -0.300000
v -0.000000 -0.500000 -0.400000
v -0.000000 -0.400000 -0.400000
v 0.100000 -0.500000 -0.400000
v -0.000000 -0.300000 -0.400000
v 0.100000 -0.400000 -0.400000
v -0.000000 0.500000 -0.400000
v 0.100000 0.200000 -0.400000
v 0.100000 0.400000 -0.400000
v 0.200000 -0.500000 -0.400000
v 0.200000 -0.400000 -0.400000
v 0.200000 -0.300000 -0.400000
v 0.200000 0.200000 -0.400000
v 0.200000 0.400000 -0.400000
v 0.200000 0.500000 -0.400000
v -0.000000 -0.600000 0.200000
v 0.100000 -0.600000 0.300000
v -0.000000 -0.600000 0.300000
v 0.100000 -0.600000 0.200000
v 0.200000 -0.600000 0.300000
v 0.200000 -0.600000 0.200000
v -0.000000 -0.600000 0.100000
v 0.100000 -0.600000 0.100000
v 0.200000 -0.600000 0.100000
v -0.000000 -0.600000 0.000000
v 0.100000 -0.600000 0.000000
v 0.200000 -0.600000 0.000000
v -0.000000 -0.600000 -0.100000
v 0.100000 -0.600000 -0.100000
v 0.200000 -0.600000 -0.100000
v -0.000000 -0.600000 -0.200000
v 0.100000 -0.600000 -0.200000
v 0.200000 -0.600000 -0.200000
v -0.000000 -0.600000 -0.300000
v 0.100000 -0.600000 -0.300000
v 0.200000 -0.600000 -0.300000
v -0.000000 -0.500000 0.300000
v 0.100000 -0.500000 0.400000
v -0.000000 -0.500000 0.400000
v 0.100000 -0.500000 0.300000
v 0.200000 -0.500000 0.400000
v 0.200000 -0.500000 0.300000
v -0.000000 -0.500000 -0.400000
v 0.100000 -0.500000 -0.300000
v -0.000000 -0.500000 -0.300000
v 0.100000 -0.500000 -0.400000
v 0.200000 -0.500000 -0.300000
v 0.200000 -0.500000 -0.400000
v -0.000000 0.500000 0.400000
v 0.100000 0.500000 0.400000
v -0.000000 0.500000 0.300000
v 0.200000 0.500000 0.400000
v 0.100000 0.500000 0.300000
v 0.200000 0.500000 0.300000
v -0.000000 0.500000 -0.300000
v 0.100000 0.500000 -0.300000
v -0.000000 0.500000 -0.400000
v 0.200000 0.500000 -0.300000
v 0.200000 0.500000 -0.400000
v -0.000000 0.600000 0.300000
v 0.100000 0.600000 0.300000
v 0.100000 0.600000 0.100000
v 0.200000 0.600000 0.300000
v 0.200000 0.600000 0.100000
v -0.000000 0.600000 0.000000
v 0.100000 0.600000 0.000000
v -0.000000 0.600000 -0.300000
v 0.100000 0.600000 -0.300000
v 0.200000 0.600000 -0.300000
vn -1.0000 -0.0000 -0.0000
vn 1.0000 -0.0000 -0.0000
vn -0.0000 -0.0000 1.0000
vn -0.0000 -0.0000 -1.0000
vn -0.0000 -1.0000 -0.0000
vn -0.0000 1.0000 -0.0000
vt 0.966797 0.500000
vt 0.904297 0.500000
vt 0.904297 0.500000
vt 0.966797 0.500000
vt 0.966797 0.500000
vt 0.962891 0.500000
vt 0.966797 0.500000
vt 0.904297 0.500000
vt 0.904297 0.500000
vt 0.962891 0.500000
vt 0.904297 0.500000
vt 0.966797 0.500000
vt 0.904297 0.500000
vt 0.962891 0.500000
vt 0.962891 0.500000
vt 0.904297 0.500000
vt 0.966797 0.500000
vt 0.904297 0.500000
vt 0.962891 0.500000
vt 0.904297 0.500000
vt 0.904297 0.500000
vt 0.927734 0.500000
vt 0.904297 0.500000
vt 0.904297 0.500000
vt 0.966797 0.500000
vt 0.927734 0.500000
vt 0.931641 0.500000
vt 0.966797 0.500000
vt 0.904297 0.500000
vt 0.931641 0.500000
vt 0.966797 0.500000
vt 0.904297 0.500000
vt 0.904297 0.500000
vt 0.966797 0.500000
vt 0.931641 0.500000
vt 0.966797 0.500000
vt 0.904297 0.500000
vt 0.931641 0.500000
vt 0.927734 0.500000
vt 0.904297 0.500000
vt 0.966797 0.500000
vt 0.927734 0.500000
vt 0.966797 0.500000
vt 0.904297 0.500000
vt 0.927734 0.500000
vt 0.904297 0.500000
vt 0.962891 0.500000
vt 0.931641 0.500000
vt 0.927734 0.500000
vt 0.962891 0.500000
vt 0.962891 0.500000
vt 0.931641 0.500000
vt 0.927734 0.500000
vt 0.916016 0.500000
vt 0.927734 0.500000
vt 0.931641 0.500000
vt 0.912109 0.500000
vt 0.916016 0.500000
vt 0.931641 0.500000
vt 0.927734 0.500000
vt 0.916016 0.500000
vt 0.912109 0.500000
vt 0.927734 0.500000
vt 0.931641 0.500000
vt 0.912109 0.500000
vt 0.916016 0.500000
vt 0.931641 0.500000
vt 0.912109 0.500000
vt 0.916016 0.500000
vt 0.912109 0.500000
vt 0.916016 0.500000
vt 0.912109 0.500000
vt 0.916016 0.500000
vt 0.912109 0.500000
vt 0.916016 0.500000
vt 0.912109 0.500000
vt 0.912109 0.500000
vt 0.908203 0.500000
vt 0.912109 0.500000
vt 0.908203 0.500000
vt 0.908203 0.500000
vt 0.912109 0.500000
vt 0.908203 0.500000
vt 0.912109 0.500000
vt 0.908203 0.500000
vt 0.912109 0.500000
vt 0.912109 0.500000
vt 0.908203 0.500000
vt 0.908203 0.500000
vt 0.912109 0.500000
vt 0.912109 0.500000
vt 0.904297 0.500000
vt 0.962891 0.500000
vt 0.904297 0.500000
vt 0.904297 0.500000
vt 0.966797 0.500000
vt 0.904297 0.500000
vt 0.962891 0.500000
vt 0.962891 0.500000
vt 0.966797 0.500000
vt 0.904297 0.500000
vt 0.966797 0.500000
vt 0.904297 0.500000
vt 0.962891 0.500000
vt 0.904297 0.500000
vt 0.966797 0.500000
vt 0.962891 0.500000
vt 0.904297 0.500000
vt 0.962891 0.500000
vt 0.962891 0.500000
vt 0.966797 0.500000
vt 0.904297 0.500000
vt 0.904297 0.500000
vt 0.966797 0.500000
vt 0.962891 0.500000
vt 0.904297 0.500000
vt 0.966797 0.500000
vt 0.966797 0.500000
vt 0.966797 0.500000
vt 0.927734 0.500000
vt 0.966797 0.500000
vt 0.904297 0.500000
vt 0.931641 0.500000
vt 0.927734 0.500000
vt 0.904297 0.500000
vt 0.966797 0.500000
vt 0.931641 0.500000
vt 0.966797 0.500000
vt 0.904297 0.500000
vt 0.931641 0.500000
vt 0.904297 0.500000
vt 0.966797 0.500000
vt 0.931641 0.500000
vt 0.927734 0.500000
vt 0.966797 0.500000
vt 0.904297 0.500000
vt 0.927734 0.500000
vt 0.904297 0.500000
vt 0.966797 0.500000
vt 0.927734 0.500000
vt 0.904297 0.500000
vt 0.966797 0.500000
vt 0.904297 0.500000
vt 0.931641 0.500000
vt 0.927734 0.500000
vt 0.904297 0.500000
vt 0.931641 0.500000
vt 0.927734 0.500000
vt 0.916016 0.500000
vt 0.927734 0.500000
vt 0.931641 0.500000
vt 0.912109 0.500000
vt 0.916016 0.500000
vt 0.931641 0.500000
vt 0.927734 0.500000
vt 0.916016 0.500000
vt 0.912109 0.500000
vt 0.927734 0.500000
vt 0.931641 0.500000
vt 0.912109 0.500000
vt 0.916016 0.500000
vt 0.931641 0.500000
vt 0.912109 0.500000
vt 0.916016 0.500000
vt 0.912109 0.500000
vt 0.916016 0.500000
vt 0.912109 0.500000
vt 0.916016 0.500000
vt 0.912109 0.500000
vt 0.916016 0.500000
vt 0.912109 0.500000
vt 0.912109 0.500000
vt 0.908203 0.500000
vt 0.912109 0.500000
vt 0.908203 0.500000
vt 0.908203 0.500000
vt 0.912109 0.500000
vt 0.908203 0.500000
vt 0.912109 0.500000
vt 0.912109 0.500000
vt 0.912109 0.500000
vt 0.908203 0.500000
vt 0.912109 0.500000
vt 0.912109 0.500000
vt 0.908203 0.500000
vt 0.912109 0.500000
vt 0.912109 0.500000
vt 0.912109 0.500000
vt 0.908203 0.500000
vt 0.908203 0.500000
vt 0.904297 0.500000
vt 0.966797 0.500000
vt 0.927734 0.500000
vt 0.904297 0.500000
vt 0.904297 0.500000
vt 0.904297 0.500000
vt 0.927734 0.500000
vt 0.966797 0.500000
vt 0.916016 0.500000
vt 0.927734 0.500000
vt 0.908203 0.500000
vt 0.912109 0.500000
vt 0.908203 0.500000
vt 0.908203 0.500000
vt 0.912109 0.500000
vt 0.912109 0.500000
vt 0.916016 0.500000
vt 0.908203 0.500000
vt 0.912109 0.500000
vt 0.966797 0.500000
vt 0.966797 0.500000
vt 0.927734 0.500000
vt 0.927734 0.500000
vt 0.916016 0.500000
vt 0.916016 0.500000
vt 0.912109 0.500000
vt 0.912109 0.500000
vt 0.966797 0.500000
vt 0.904297 0.500000
vt 0.966797 0.500000
vt 0.966797 0.500000
vt 0.966797 0.500000
vt 0.904297 0.500000
vt 0.908203 0.500000
vt 0.912109 0.500000
vt 0.908203 0.500000
vt 0.908203 0.500000
vt 0.908203 0.500000
vt 0.912109 0.500000
vt 0.904297 0.500000
vt 0.904297 0.500000
vt 0.912109 0.500000
vt 0.912109 0.500000
vt 0.904297 0.500000
vt 0.904297 0.500000
vt 0.904297 0.500000
vt 0.962891 0.500000
vt 0.904297 0.500000
vt 0.962891 0.500000
vt 0.912109 0.500000
vt 0.912109 0.500000
vt 0.912109 0.500000
vt 0.908203 0.500000
vt 0.912109 0.500000
vt 0.908203 0.500000
vt 0.962891 0.500000
vt 0.962891 0.500000
vt 0.908203 0.500000
vt 0.908203 0.500000
vt 0.962891 0.500000
vt 0.931641 0.500000
vt 0.962891 0.500000
vt 0.962891 0.500000
vt 0.904297 0.500000
vt 0.912109 0.500000
vt 0.931641 0.500000
vt 0.962891 0.500000
vt 0.931641 0.500000
vt 0.904297 0.500000
vt 0.912109 0.500000
vt 0.908203 0.500000
vt 0.912109 0.500000
vt 0.912109 0.500000
vt 0.908203 0.500000
vt 0.904297 0.500000
vt 0.904297 0.500000
vt 0.931641 0.500000
vt 0.931641 0.500000
vt 0.912109 0.500000
vt 0.912109 0.500000
vt 0.908203 0.500000
vt 0.908203 0.500000
vt 0.912109 0.500000
vt 0.912109 0.500000
vt 0.966797 0.500000
vt 0.904297 0.500000
vt 0.904297 0.500000
vt 0.966797 0.500000
vt 0.966797 0.500000
vt 0.966797 0.500000
vt 0.962891 0.500000
vt 0.904297 0.500000
vt 0.904297 0.500000
vt 0.904297 0.500000
vt 0.962891 0.500000
vt 0.904297 0.500000
vt 0.966797 0.500000
vt 0.962891 0.500000
vt 0.904297 0.500000
vt 0.966797 0.500000
vt 0.962891 0.500000
vt 0.904297 0.500000
vt 0.966797 0.500000
vt 0.904297 0.500000
vt 0.966797 0.500000
vt 0.904297 0.500000
vt 0.904297 0.500000
vt 0.966797 0.500000
vt 0.904297 0.500000
vt 0.962891 0.500000
vt 0.966797 0.500000
vt 0.904297 0.500000
vt 0.962891 0.500000
vt 0.966797 0.500000
vt 0.904297 0.500000
vt 0.962891 0.500000
vt 0.904297 0.500000
vt 0.962891 0.500000
vt 0.904297 0.500000
vt 0.904297 0.500000
vt 0.962891 0.500000
vt 0.904297 0.500000
vt 0.904297 0.500000
vt 0.962891 0.500000
vt 0.962891 0.500000
vt 0.904297 0.500000
vt 0.966797 0.500000
vt 0.904297 0.500000
vt 0.904297 0.500000
vt 0.904297 0.500000
vt 0.966797 0.500000
vt 0.966797 0.500000
vt 0.966797 0.500000
vt 0.962891 0.500000
vt 0.904297 0.500000
vt 0.962891 0.500000
vt 0.962891 0.500000
vt 0.962891 0.500000
vt 0.904297 0.500000
vt 0.904297 0.500000
vt 0.904297 0.500000
vt 0.908203 0.500000
vt 0.912109 0.500000
vt 0.908203 0.500000
vt 0.908203 0.500000
vt 0.912109 0.500000
vt 0.908203 0.500000
vt 0.912109 0.500000
vt 0.912109 0.500000
vt 0.912109 0.500000
vt 0.912109 0.500000
vt 0.912109 0.500000
vt 0.912109 0.500000
vt 0.912109 0.500000
vt 0.908203 0.500000
vt 0.908203 0.500000
vt 0.912109 0.500000
vt 0.912109 0.500000
vt 0.908203 0.500000
vt 0.912109 0.500000
vt 0.912109 0.500000
vt 0.908203 0.500000
vt 0.908203 0.500000
vt 0.912109 0.500000
vt 0.908203 0.500000
vt 0.912109 0.500000
vt 0.912109 0.500000
vt 0.912109 0.500000
vt 0.908203 0.500000
vt 0.908203 0.500000
s 1
usemtl palette
f 1/1/1 2/4/1 3/5/1
f 4/8/1 5/9/1 6/11/1
f 4/6/1 7/14/1 5/10/1
f 8/16/1 9/18/1 7/13/1
f 8/15/1 7/14/1 4/6/1
f 10/20/1 9/18/1 8/16/1
f 11/21/1 1/2/1 12/23/1
f 13/25/1 2/4/1 1/1/1
f 13/24/1 1/2/1 11/21/1
f 14/29/1 15/32/1 2/3/1
f 14/28/1 2/4/1 13/25/1
f 16/34/1 6/12/1 15/31/1
f 16/33/1 15/32/1 14/29/1
f 17/37/1 4/8/1 6/11/1
f 17/36/1 6/12/1 16/34/1
f 18/41/1 8/17/1 4/7/1
f 18/40/1 4/8/1 17/37/1
f 19/44/1 10/20/1 8/16/1
f 19/43/1 8/17/1 18/41/1
f 20/47/1 21/50/1 10/19/1
f 20/46/1 10/20/1 19/44/1
f 22/51/1 21/50/1 20/47/1
f 23/53/1 13/26/1 11/22/1
f 24/56/1 16/35/1 14/30/1
f 24/55/1 13/26/1 23/53/1
f 24/56/1 14/30/1 13/27/1
f 24/56/1 17/38/1 16/35/1
f 25/60/1 19/45/1 18/42/1
f 25/59/1 17/38/1 24/56/1
f 25/60/1 20/49/1 19/45/1
f 25/60/1 18/42/1 17/39/1
f 26/64/1 22/52/1 20/48/1
f 26/63/1 20/49/1 25/60/1
f 27/67/1 22/52/1 26/64/1
f 28/69/1 24/58/1 23/54/1
f 29/72/1 25/62/1 24/57/1
f 29/71/1 24/58/1 28/69/1
f 30/73/1 26/66/1 25/61/1
f 30/74/1 25/62/1 29/72/1
f 31/76/1 27/68/1 26/65/1
f 31/75/1 26/66/1 30/73/1
f 32/77/1 29/72/1 28/70/1
f 32/77/1 30/74/1 29/72/1
f 32/77/1 31/76/1 30/74/1
f 33/79/1 31/76/1 32/77/1
f 34/81/1 33/80/1 32/78/1
f 35/82/1 31/76/1 33/79/1
f 35/83/1 33/80/1 34/81/1
f 36/84/1 31/76/1 35/82/1
f 37/86/1 27/68/1 31/76/1
f 37/86/1 31/76/1 36/84/1
f 38/87/1 27/68/1 37/86/1
f 39/88/1 36/85/1 35/83/1
f 40/90/1 37/86/1 36/84/1
f 40/89/1 36/85/1 39/88/1
f 41/91/1 37/86/1 40/90/1
f 42/92/2 43/94/2 44/95/2
f 43/93/2 45/98/2 46/99/2
f 44/95/2 43/94/2 46/101/2
f 45/97/2 47/103/2 48/105/2
f 46/99/2 45/98/2 48/104/2
f 49/107/2 50/109/2 51/110/2
f 52/113/2 49/108/2 51/112/2
f 51/110/2 50/109/2 53/115/2
f 54/118/2 44/96/2 55/119/2
f 44/95/2 46/101/2 56/122/2
f 55/119/2 44/96/2 56/121/2
f 46/100/2 48/106/2 57/126/2
f 56/122/2 46/101/2 57/125/2
f 48/105/2 47/103/2 58/129/2
f 57/126/2 48/106/2 58/128/2
f 47/102/2 52/114/2 59/132/2
f 58/129/2 47/103/2 59/131/2
f 52/113/2 51/112/2 60/136/2
f 59/132/2 52/114/2 60/135/2
f 51/111/2 53/117/2 61/139/2
f 60/136/2 51/112/2 61/138/2
f 53/116/2 62/141/2 63/143/2
f 61/139/2 53/117/2 63/142/2
f 63/143/2 62/141/2 64/146/2
f 55/120/2 56/124/2 65/148/2
f 56/123/2 57/127/2 66/151/2
f 65/148/2 56/124/2 66/150/2
f 57/127/2 58/130/2 66/151/2
f 58/130/2 59/133/2 66/151/2
f 60/137/2 61/140/2 67/155/2
f 66/151/2 59/133/2 67/154/2
f 61/140/2 63/145/2 67/155/2
f 59/134/2 60/137/2 67/155/2
f 63/144/2 64/147/2 68/159/2
f 67/155/2 63/145/2 68/158/2
f 68/159/2 64/147/2 69/162/2
f 65/149/2 66/153/2 70/164/2
f 66/152/2 67/157/2 71/167/2
f 70/164/2 66/153/2 71/166/2
f 67/156/2 68/161/2 72/168/2
f 71/167/2 67/157/2 72/169/2
f 68/160/2 69/163/2 73/171/2
f 72/168/2 68/161/2 73/170/2
f 70/165/2 71/167/2 74/172/2
f 73/171/2 69/163/2 74/172/2
f 72/169/2 73/171/2 74/172/2
f 71/167/2 72/169/2 74/172/2
f 74/172/2 69/163/2 75/174/2
f 70/165/2 74/172/2 76/177/2
f 74/173/2 75/175/2 76/176/2
f 76/176/2 75/175/2 77/178/2
f 70/165/2 76/177/2 78/180/2
f 76/177/2 77/179/2 78/180/2
f 78/180/2 77/179/2 79/181/2
f 79/181/2 77/179/2 80/183/2
f 80/183/2 77/179/2 81/184/2
f 81/184/2 77/179/2 82/186/2
f 79/181/2 80/183/2 83/187/2
f 80/182/2 81/185/2 84/189/2
f 83/187/2 80/183/2 84/188/2
f 84/189/2 81/185/2 85/190/2
f 86/191/3 87/194/3 88/195/3
f 89/197/3 90/200/3 87/193/3
f 89/196/3 87/194/3 86/191/3
f 91/201/3 92/203/3 93/204/3
f 91/202/3 93/205/3 94/206/3
f 95/208/3 92/203/3 91/201/3
f 96/210/3 89/198/3 86/192/3
f 97/212/3 90/200/3 89/197/3
f 97/211/3 89/198/3 96/210/3
f 98/214/3 94/207/3 90/199/3
f 98/213/3 90/200/3 97/212/3
f 99/216/3 91/202/3 94/206/3
f 99/215/3 94/207/3 98/214/3
f 99/216/3 95/209/3 91/202/3
f 100/217/3 95/209/3 99/216/3
f 101/218/3 102/220/3 103/221/3
f 104/222/3 102/220/3 101/218/3
f 105/224/3 106/226/3 107/227/3
f 108/228/3 106/226/3 105/224/3
f 109/230/3 104/223/3 101/219/3
f 110/231/3 104/223/3 109/230/3
f 111/232/3 108/229/3 105/225/3
f 112/233/3 108/229/3 111/232/3
f 113/234/4 114/235/4 115/236/4
f 115/236/4 114/235/4 116/238/4
f 117/240/4 118/241/4 119/242/4
f 119/242/4 118/241/4 120/244/4
f 115/237/4 116/239/4 121/246/4
f 121/246/4 116/239/4 122/247/4
f 119/243/4 120/245/4 123/248/4
f 123/248/4 120/245/4 124/249/4
f 125/250/4 126/252/4 127/253/4
f 126/251/4 128/256/4 129/258/4
f 127/253/4 126/252/4 129/257/4
f 128/255/4 130/260/4 131/262/4
f 131/262/4 130/260/4 132/263/4
f 127/254/4 129/259/4 133/265/4
f 129/258/4 128/256/4 134/267/4
f 133/265/4 129/259/4 134/266/4
f 128/255/4 131/262/4 135/269/4
f 134/267/4 128/256/4 135/268/4
f 131/261/4 132/264/4 136/271/4
f 135/269/4 131/262/4 136/270/4
f 132/263/4 130/260/4 137/273/4
f 136/271/4 132/264/4 137/272/4
f 137/273/4 130/260/4 138/274/4
f 139/275/5 140/278/5 141/279/5
f 142/282/5 143/283/5 140/277/5
f 142/280/5 140/278/5 139/275/5
f 144/284/5 143/283/5 142/282/5
f 145/286/5 142/282/5 139/276/5
f 146/288/5 144/285/5 142/281/5
f 146/289/5 142/282/5 145/286/5
f 147/291/5 144/285/5 146/288/5
f 148/293/5 146/290/5 145/287/5
f 149/296/5 147/292/5 146/289/5
f 149/295/5 146/290/5 148/293/5
f 150/297/5 147/292/5 149/296/5
f 151/299/5 149/296/5 148/294/5
f 152/301/5 150/298/5 149/295/5
f 152/302/5 149/296/5 151/299/5
f 153/304/5 150/298/5 152/301/5
f 154/306/5 152/303/5 151/300/5
f 155/309/5 153/305/5 152/302/5
f 155/308/5 152/303/5 154/306/5
f 156/310/5 153/305/5 155/309/5
f 157/312/5 155/309/5 154/307/5
f 158/314/5 156/311/5 155/308/5
f 158/313/5 155/309/5 157/312/5
f 159/315/5 156/311/5 158/314/5
f 160/316/5 161/318/5 162/319/5
f 163/321/5 164/322/5 161/317/5
f 163/320/5 161/318/5 160/316/5
f 165/323/5 164/322/5 163/321/5
f 166/324/5 167/326/5 168/327/5
f 169/329/5 170/330/5 167/325/5
f 169/328/5 167/326/5 166/324/5
f 171/331/5 170/330/5 169/329/5
f 172/332/6 173/334/6 174/335/6
f 173/333/6 175/336/6 176/338/6
f 174/335/6 173/334/6 176/337/6
f 176/338/6 175/336/6 177/339/6
f 178/340/6 179/341/6 180/342/6
f 179/341/6 181/343/6 180/342/6
f 180/342/6 181/343/6 182/344/6
f 183/345/6 184/346/6 185/349/6
f 184/347/6 186/350/6 185/348/6
f 185/348/6 186/350/6 187/351/6
f 183/345/6 185/349/6 188/353/6
f 185/349/6 187/352/6 188/353/6
f 188/353/6 187/352/6 189/355/6
f 188/354/6 189/356/6 190/357/6
f 189/355/6 187/352/6 191/359/6
f 190/357/6 189/356/6 191/358/6
f 191/359/6 187/352/6 192/360/6
