# MagicaVoxel @ Ephtracy

# group
o 

# material
mtllib key.mtl
usemtl palette

# normals
vn -1 0 0
vn 1 0 0
vn 0 0 1
vn 0 0 -1
vn 0 -1 0
vn 0 1 0

# texcoords
vt 0.0566406 0.5
vt 0.341797 0.5
vt 0.404297 0.5
vt 0.935547 0.5

# verts
v -0.0999999 0 0.3
v -0.0999999 0 -0.3
v -0.0999999 0.1 0.4
v -0.0999999 0.1 0.3
v -0.0999999 0.1 -0.3
v -0.0999999 0.1 -0.4
v -0.0999999 1.1 0.4
v -0.0999999 1.1 0.3
v -0.0999999 1.1 -0.3
v -0.0999999 1.1 -0.4
v -0.0999999 1.2 0.3
v -0.0999999 1.2 -0.3
v 0.1 0.3 0.3
v 0.1 0.3 -0.3
v 0.1 1 0.3
v 0.1 1 0.2
v 0.1 1 -0.2
v 0.1 1 -0.3
v 0.1 1.1 0.2
v 0.1 1.1 -0.2
v 0.2 0 0.3
v 0.2 0 0.2
v 0.2 0 0.1
v 0.2 0 0
v 0.2 0 -0.1
v 0.2 0 -0.2
v 0.2 0 -0.3
v 0.2 0.1 0.4
v 0.2 0.1 0.3
v 0.2 0.1 -0.3
v 0.2 0.1 -0.4
v 0.2 0.2 0.4
v 0.2 0.2 0.3
v 0.2 0.2 0.2
v 0.2 0.2 0.1
v 0.2 0.2 0
v 0.2 0.2 -0.1
v 0.2 0.2 -0.2
v 0.2 0.2 -0.3
v 0.2 0.2 -0.4
v 0.2 0.3 0.3
v 0.2 0.3 -0.3
v 0.2 1 0.3
v 0.2 1 0.2
v 0.2 1 -0.2
v 0.2 1 -0.3
v 0.2 1.1 0.4
v 0.2 1.1 0.3
v 0.2 1.1 0.2
v 0.2 1.1 -0.2
v 0.2 1.1 -0.3
v 0.2 1.1 -0.4
v 0.2 1.2 0.3
v 0.2 1.2 -0.3
v -0.0999999 0.1 0.4
v -0.0999999 1.1 0.4
v 0.1 0.1 0.4
v 0.1 0.2 0.4
v 0.2 0.1 0.4
v 0.2 0.2 0.4
v 0.2 1.1 0.4
v -0.0999999 0 0.3
v -0.0999999 0.1 0.3
v -0.0999999 1.1 0.3
v -0.0999999 1.2 0.3
v 0.1 0 0.3
v 0.1 0.1 0.3
v 0.2 0 0.3
v 0.2 0.1 0.3
v 0.2 1.1 0.3
v 0.2 1.2 0.3
v 0.1 1 -0.2
v 0.1 1.1 -0.2
v 0.2 1 -0.2
v 0.2 1.1 -0.2
v 0.1 0.3 -0.3
v 0.1 1 -0.3
v 0.2 0.3 -0.3
v 0.2 1 -0.3
v 0.1 0.3 0.3
v 0.1 1 0.3
v 0.2 0.3 0.3
v 0.2 1 0.3
v 0.1 1 0.2
v 0.1 1.1 0.2
v 0.2 1 0.2
v 0.2 1.1 0.2
v -0.0999999 0 -0.3
v -0.0999999 0.1 -0.3
v -0.0999999 1.1 -0.3
v -0.0999999 1.2 -0.3
v 0.1 0 -0.3
v 0.1 0.1 -0.3
v 0.2 0 -0.3
v 0.2 0.1 -0.3
v 0.2 1.1 -0.3
v 0.2 1.2 -0.3
v -0.0999999 0.1 -0.4
v -0.0999999 1.1 -0.4
v 0.1 0.1 -0.4
v 0.1 0.2 -0.4
v 0.2 0.1 -0.4
v 0.2 0.2 -0.4
v 0.2 1.1 -0.4
v -0.0999999 0 0.3
v 0.1 0 0.3
v 0.2 0 0.3
v 0.1 0 0.2
v 0.2 0 0.2
v 0.1 0 0.1
v 0.2 0 0.1
v 0.1 0 0
v 0.2 0 0
v 0.1 0 -0.1
v 0.2 0 -0.1
v 0.1 0 -0.2
v 0.2 0 -0.2
v -0.0999999 0 -0.3
v 0.1 0 -0.3
v 0.2 0 -0.3
v -0.0999999 0.1 0.4
v 0.1 0.1 0.4
v 0.2 0.1 0.4
v -0.0999999 0.1 0.3
v 0.1 0.1 0.3
v 0.2 0.1 0.3
v -0.0999999 0.1 -0.3
v 0.1 0.1 -0.3
v 0.2 0.1 -0.3
v -0.0999999 0.1 -0.4
v 0.1 0.1 -0.4
v 0.2 0.1 -0.4
v 0.1 1 0.3
v 0.2 1 0.3
v 0.1 1 0.2
v 0.2 1 0.2
v 0.1 1 -0.2
v 0.2 1 -0.2
v 0.1 1 -0.3
v 0.2 1 -0.3
v 0.1 1.1 0.2
v 0.2 1.1 0.2
v 0.1 1.1 -0.2
v 0.2 1.1 -0.2
v 0.1 0.3 0.3
v 0.2 0.3 0.3
v 0.1 0.3 -0.3
v 0.2 0.3 -0.3
v -0.0999999 1.1 0.4
v 0.2 1.1 0.4
v -0.0999999 1.1 0.3
v 0.2 1.1 0.3
v -0.0999999 1.1 -0.3
v 0.2 1.1 -0.3
v -0.0999999 1.1 -0.4
v 0.2 1.1 -0.4
v -0.0999999 1.2 0.3
v 0.2 1.2 0.3
v -0.0999999 1.2 -0.3
v 0.2 1.2 -0.3

# faces
f 4/4/1 2/4/1 1/4/1
f 5/4/1 2/4/1 4/4/1
f 7/4/1 4/4/1 3/4/1
f 7/4/1 6/4/1 5/4/1
f 7/4/1 5/4/1 4/4/1
f 8/4/1 6/4/1 7/4/1
f 9/4/1 6/4/1 8/4/1
f 10/4/1 6/4/1 9/4/1
f 11/4/1 9/4/1 8/4/1
f 12/4/1 9/4/1 11/4/1
f 13/1/2 14/1/2 15/1/2
f 15/1/2 14/1/2 16/1/2
f 16/1/2 14/1/2 17/1/2
f 17/1/2 14/1/2 18/1/2
f 16/4/2 17/4/2 19/4/2
f 19/4/2 17/4/2 20/4/2
f 21/3/2 22/3/2 29/3/2
f 26/2/2 27/2/2 30/2/2
f 28/2/2 29/2/2 32/2/2
f 29/3/2 22/3/2 33/3/2
f 32/2/2 29/2/2 33/2/2
f 22/2/2 23/2/2 34/2/2
f 33/3/2 22/3/2 34/3/2
f 23/3/2 24/3/2 35/3/2
f 34/2/2 23/2/2 35/2/2
f 24/2/2 25/2/2 36/2/2
f 35/3/2 24/3/2 36/3/2
f 25/3/2 26/3/2 37/3/2
f 36/2/2 25/2/2 37/2/2
f 26/2/2 30/2/2 38/2/2
f 37/3/2 26/3/2 38/3/2
f 30/3/2 31/3/2 39/3/2
f 38/2/2 30/2/2 39/2/2
f 39/3/2 31/3/2 40/3/2
f 37/4/2 38/4/2 41/4/2
f 32/4/2 33/4/2 41/4/2
f 39/4/2 40/4/2 41/4/2
f 38/4/2 39/4/2 41/4/2
f 36/4/2 37/4/2 41/4/2
f 33/4/2 34/4/2 41/4/2
f 34/4/2 35/4/2 41/4/2
f 35/4/2 36/4/2 41/4/2
f 41/4/2 40/4/2 42/4/2
f 32/4/2 41/4/2 43/4/2
f 42/4/2 40/4/2 46/4/2
f 43/4/2 44/4/2 47/4/2
f 32/4/2 43/4/2 47/4/2
f 47/4/2 44/4/2 48/4/2
f 48/4/2 44/4/2 49/4/2
f 45/4/2 46/4/2 50/4/2
f 46/4/2 40/4/2 51/4/2
f 50/4/2 46/4/2 51/4/2
f 51/4/2 40/4/2 52/4/2
f 48/4/2 49/4/2 53/4/2
f 49/4/2 50/4/2 53/4/2
f 50/4/2 51/4/2 53/4/2
f 53/4/2 51/4/2 54/4/2
f 57/4/3 56/4/3 55/4/3
f 58/4/3 56/4/3 57/4/3
f 59/2/3 58/2/3 57/2/3
f 60/4/3 56/4/3 58/4/3
f 60/2/3 58/2/3 59/2/3
f 61/4/3 56/4/3 60/4/3
f 66/4/3 63/4/3 62/4/3
f 67/4/3 63/4/3 66/4/3
f 68/3/3 67/3/3 66/3/3
f 69/3/3 67/3/3 68/3/3
f 70/4/3 65/4/3 64/4/3
f 71/4/3 65/4/3 70/4/3
f 74/4/3 73/4/3 72/4/3
f 75/4/3 73/4/3 74/4/3
f 78/4/3 77/4/3 76/4/3
f 79/4/3 77/4/3 78/4/3
f 80/4/4 81/4/4 82/4/4
f 82/4/4 81/4/4 83/4/4
f 84/4/4 85/4/4 86/4/4
f 86/4/4 85/4/4 87/4/4
f 88/4/4 89/4/4 92/4/4
f 92/4/4 89/4/4 93/4/4
f 92/2/4 93/2/4 94/2/4
f 94/2/4 93/2/4 95/2/4
f 90/4/4 91/4/4 96/4/4
f 96/4/4 91/4/4 97/4/4
f 98/4/4 99/4/4 100/4/4
f 100/4/4 99/4/4 101/4/4
f 100/3/4 101/3/4 102/3/4
f 101/4/4 99/4/4 103/4/4
f 102/3/4 101/3/4 103/3/4
f 103/4/4 99/4/4 104/4/4
f 108/4/5 106/4/5 105/4/5
f 108/3/5 107/3/5 106/3/5
f 109/3/5 107/3/5 108/3/5
f 110/4/5 108/4/5 105/4/5
f 110/2/5 109/2/5 108/2/5
f 111/2/5 109/2/5 110/2/5
f 112/4/5 110/4/5 105/4/5
f 112/3/5 111/3/5 110/3/5
f 113/3/5 111/3/5 112/3/5
f 114/4/5 112/4/5 105/4/5
f 114/2/5 113/2/5 112/2/5
f 115/2/5 113/2/5 114/2/5
f 116/4/5 114/4/5 105/4/5
f 116/3/5 115/3/5 114/3/5
f 117/3/5 115/3/5 116/3/5
f 118/4/5 116/4/5 105/4/5
f 119/2/5 117/2/5 116/2/5
f 119/4/5 116/4/5 118/4/5
f 120/2/5 117/2/5 119/2/5
f 124/4/5 122/4/5 121/4/5
f 125/2/5 123/2/5 122/2/5
f 125/4/5 122/4/5 124/4/5
f 126/2/5 123/2/5 125/2/5
f 130/4/5 128/4/5 127/4/5
f 131/3/5 129/3/5 128/3/5
f 131/4/5 128/4/5 130/4/5
f 132/3/5 129/3/5 131/3/5
f 135/4/5 134/4/5 133/4/5
f 136/4/5 134/4/5 135/4/5
f 139/4/5 138/4/5 137/4/5
f 140/4/5 138/4/5 139/4/5
f 143/4/5 142/4/5 141/4/5
f 144/4/5 142/4/5 143/4/5
f 145/4/6 146/4/6 147/4/6
f 147/4/6 146/4/6 148/4/6
f 149/4/6 150/4/6 151/4/6
f 151/4/6 150/4/6 152/4/6
f 153/4/6 154/4/6 155/4/6
f 155/4/6 154/4/6 156/4/6
f 157/4/6 158/4/6 159/4/6
f 159/4/6 158/4/6 160/4/6
