# MagicaVoxel @ Ephtracy

# group
o 

# material
mtllib key.mtl
usemtl palette

# normals
vn -1 0 0
vn 1 0 0
vn 0 0 1
vn 0 0 -1
vn 0 -1 0
vn 0 1 0

# texcoords
vt 0.904297 0.5
vt 0.908203 0.5
vt 0.912109 0.5
vt 0.916016 0.5
vt 0.927734 0.5
vt 0.931641 0.5
vt 0.962891 0.5
vt 0.966797 0.5

# verts
v -2.23517e-08 0 0.3
v -2.23517e-08 0 0.2
v -2.23517e-08 0 0.1
v -2.23517e-08 0 0
v -2.23517e-08 0 -0.1
v -2.23517e-08 0 -0.2
v -2.23517e-08 0 -0.3
v -2.23517e-08 0.1 0.4
v -2.23517e-08 0.1 0.3
v -2.23517e-08 0.1 -0.1
v -2.23517e-08 0.1 -0.2
v -2.23517e-08 0.1 -0.3
v -2.23517e-08 0.1 -0.4
v -2.23517e-08 0.2 0.4
v -2.23517e-08 0.2 0.3
v -2.23517e-08 0.2 0.2
v -2.23517e-08 0.2 0.1
v -2.23517e-08 0.2 0
v -2.23517e-08 0.2 -0.1
v -2.23517e-08 0.2 -0.2
v -2.23517e-08 0.2 -0.3
v -2.23517e-08 0.2 -0.4
v -2.23517e-08 0.3 0.4
v -2.23517e-08 0.3 0.3
v -2.23517e-08 0.3 0
v -2.23517e-08 0.3 -0.3
v -2.23517e-08 0.3 -0.4
v -2.23517e-08 0.4 0.4
v -2.23517e-08 0.4 0.3
v -2.23517e-08 0.4 0
v -2.23517e-08 0.4 -0.3
v -2.23517e-08 1 0.4
v -2.23517e-08 1 0.3
v -2.23517e-08 1.1 0.4
v -2.23517e-08 1.1 0.3
v -2.23517e-08 1.1 0
v -2.23517e-08 1.1 -0.3
v -2.23517e-08 1.1 -0.4
v -2.23517e-08 1.2 0.3
v -2.23517e-08 1.2 0
v -2.23517e-08 1.2 -0.3
v 0.2 0 0.3
v 0.2 0 0.2
v 0.2 0 0.1
v 0.2 0 0
v 0.2 0 -0.1
v 0.2 0 -0.2
v 0.2 0 -0.3
v 0.2 0.1 0.4
v 0.2 0.1 0.3
v 0.2 0.1 0.2
v 0.2 0.1 0.1
v 0.2 0.1 -0.2
v 0.2 0.1 -0.3
v 0.2 0.1 -0.4
v 0.2 0.2 0.4
v 0.2 0.2 0.3
v 0.2 0.2 0.2
v 0.2 0.2 0.1
v 0.2 0.2 0
v 0.2 0.2 -0.1
v 0.2 0.2 -0.2
v 0.2 0.2 -0.3
v 0.2 0.2 -0.4
v 0.2 0.3 0.4
v 0.2 0.3 0.3
v 0.2 0.3 0
v 0.2 0.3 -0.3
v 0.2 0.3 -0.4
v 0.2 0.4 0.4
v 0.2 0.4 0.3
v 0.2 0.4 0
v 0.2 0.4 -0.3
v 0.2 0.8 -0.3
v 0.2 0.8 -0.4
v 0.2 1 -0.3
v 0.2 1 -0.4
v 0.2 1.1 0.4
v 0.2 1.1 0.3
v 0.2 1.1 0.1
v 0.2 1.1 -0.3
v 0.2 1.1 -0.4
v 0.2 1.2 0.3
v 0.2 1.2 0.1
v 0.2 1.2 -0.3
v -2.23517e-08 0.1 0.4
v -2.23517e-08 0.2 0.4
v -2.23517e-08 0.3 0.4
v -2.23517e-08 0.4 0.4
v -2.23517e-08 1 0.4
v -2.23517e-08 1.1 0.4
v 0.1 0.1 0.4
v 0.1 0.2 0.4
v 0.1 1 0.4
v 0.1 1.1 0.4
v 0.2 0.1 0.4
v 0.2 0.2 0.4
v 0.2 0.3 0.4
v 0.2 0.4 0.4
v 0.2 1.1 0.4
v -2.23517e-08 0 0.3
v -2.23517e-08 0.1 0.3
v -2.23517e-08 1.1 0.3
v -2.23517e-08 1.2 0.3
v 0.1 0 0.3
v 0.1 0.1 0.3
v 0.1 1.1 0.3
v 0.1 1.2 0.3
v 0.2 0 0.3
v 0.2 0.1 0.3
v 0.2 1.1 0.3
v 0.2 1.2 0.3
v -2.23517e-08 0 -0.3
v -2.23517e-08 0.1 -0.3
v -2.23517e-08 1.1 -0.3
v -2.23517e-08 1.2 -0.3
v 0.1 0 -0.3
v 0.1 0.1 -0.3
v 0.1 1.1 -0.3
v 0.1 1.2 -0.3
v 0.2 0 -0.3
v 0.2 0.1 -0.3
v 0.2 1.1 -0.3
v 0.2 1.2 -0.3
v -2.23517e-08 0.1 -0.4
v -2.23517e-08 0.2 -0.4
v -2.23517e-08 0.3 -0.4
v -2.23517e-08 1.1 -0.4
v 0.1 0.1 -0.4
v 0.1 0.2 -0.4
v 0.1 0.8 -0.4
v 0.1 1 -0.4
v 0.2 0.1 -0.4
v 0.2 0.2 -0.4
v 0.2 0.3 -0.4
v 0.2 0.8 -0.4
v 0.2 1 -0.4
v 0.2 1.1 -0.4
v -2.23517e-08 0 0.3
v 0.1 0 0.3
v 0.2 0 0.3
v -2.23517e-08 0 0.2
v 0.1 0 0.2
v 0.2 0 0.2
v -2.23517e-08 0 0.1
v 0.1 0 0.1
v 0.2 0 0.1
v -2.23517e-08 0 0
v 0.1 0 0
v 0.2 0 0
v -2.23517e-08 0 -0.1
v 0.1 0 -0.1
v 0.2 0 -0.1
v -2.23517e-08 0 -0.2
v 0.1 0 -0.2
v 0.2 0 -0.2
v -2.23517e-08 0 -0.3
v 0.1 0 -0.3
v 0.2 0 -0.3
v -2.23517e-08 0.1 0.4
v 0.1 0.1 0.4
v 0.2 0.1 0.4
v -2.23517e-08 0.1 0.3
v 0.1 0.1 0.3
v 0.2 0.1 0.3
v -2.23517e-08 0.1 -0.3
v 0.1 0.1 -0.3
v 0.2 0.1 -0.3
v -2.23517e-08 0.1 -0.4
v 0.1 0.1 -0.4
v 0.2 0.1 -0.4
v -2.23517e-08 1.1 0.4
v 0.1 1.1 0.4
v 0.2 1.1 0.4
v -2.23517e-08 1.1 0.3
v 0.1 1.1 0.3
v 0.2 1.1 0.3
v -2.23517e-08 1.1 -0.3
v 0.1 1.1 -0.3
v 0.2 1.1 -0.3
v -2.23517e-08 1.1 -0.4
v 0.2 1.1 -0.4
v -2.23517e-08 1.2 0.3
v 0.1 1.2 0.3
v 0.2 1.2 0.3
v 0.1 1.2 0.1
v 0.2 1.2 0.1
v -2.23517e-08 1.2 0
v 0.1 1.2 0
v -2.23517e-08 1.2 -0.3
v 0.1 1.2 -0.3
v 0.2 1.2 -0.3

# faces
f 9/8/1 2/8/1 1/8/1
f 10/1/1 5/1/1 4/1/1
f 10/7/1 6/7/1 5/7/1
f 11/1/1 7/1/1 6/1/1
f 11/7/1 6/7/1 10/7/1
f 12/1/1 7/1/1 11/1/1
f 14/1/1 9/1/1 8/1/1
f 15/8/1 2/8/1 9/8/1
f 15/1/1 9/1/1 14/1/1
f 16/1/1 3/1/1 2/1/1
f 16/8/1 2/8/1 15/8/1
f 17/8/1 4/8/1 3/8/1
f 17/1/1 3/1/1 16/1/1
f 18/1/1 10/1/1 4/1/1
f 18/8/1 4/8/1 17/8/1
f 19/8/1 11/8/1 10/8/1
f 19/1/1 10/1/1 18/1/1
f 20/1/1 12/1/1 11/1/1
f 20/8/1 11/8/1 19/8/1
f 21/7/1 13/7/1 12/7/1
f 21/1/1 12/1/1 20/1/1
f 22/7/1 13/7/1 21/7/1
f 23/5/1 15/5/1 14/5/1
f 24/6/1 17/6/1 16/6/1
f 24/5/1 15/5/1 23/5/1
f 24/6/1 16/6/1 15/6/1
f 24/6/1 18/6/1 17/6/1
f 25/5/1 20/5/1 19/5/1
f 25/6/1 18/6/1 24/6/1
f 25/5/1 21/5/1 20/5/1
f 25/5/1 19/5/1 18/5/1
f 26/6/1 22/6/1 21/6/1
f 26/5/1 21/5/1 25/5/1
f 27/6/1 22/6/1 26/6/1
f 28/4/1 24/4/1 23/4/1
f 29/3/1 25/3/1 24/3/1
f 29/4/1 24/4/1 28/4/1
f 30/4/1 26/4/1 25/4/1
f 30/3/1 25/3/1 29/3/1
f 31/3/1 27/3/1 26/3/1
f 31/4/1 26/4/1 30/4/1
f 32/3/1 29/3/1 28/3/1
f 32/3/1 30/3/1 29/3/1
f 32/3/1 31/3/1 30/3/1
f 33/3/1 31/3/1 32/3/1
f 34/2/1 33/2/1 32/2/1
f 35/3/1 31/3/1 33/3/1
f 35/2/1 33/2/1 34/2/1
f 36/3/1 31/3/1 35/3/1
f 37/3/1 27/3/1 31/3/1
f 37/3/1 31/3/1 36/3/1
f 38/3/1 27/3/1 37/3/1
f 39/2/1 36/2/1 35/2/1
f 40/3/1 37/3/1 36/3/1
f 40/2/1 36/2/1 39/2/1
f 41/3/1 37/3/1 40/3/1
f 42/1/2 43/1/2 50/1/2
f 43/7/2 44/7/2 51/7/2
f 50/1/2 43/1/2 51/1/2
f 44/1/2 45/1/2 52/1/2
f 51/7/2 44/7/2 52/7/2
f 47/7/2 48/7/2 53/7/2
f 46/1/2 47/1/2 53/1/2
f 53/7/2 48/7/2 54/7/2
f 49/8/2 50/8/2 56/8/2
f 50/1/2 51/1/2 57/1/2
f 56/8/2 50/8/2 57/8/2
f 51/8/2 52/8/2 58/8/2
f 57/1/2 51/1/2 58/1/2
f 52/1/2 45/1/2 59/1/2
f 58/8/2 52/8/2 59/8/2
f 45/8/2 46/8/2 60/8/2
f 59/1/2 45/1/2 60/1/2
f 46/1/2 53/1/2 61/1/2
f 60/8/2 46/8/2 61/8/2
f 53/8/2 54/8/2 62/8/2
f 61/1/2 53/1/2 62/1/2
f 54/1/2 55/1/2 63/1/2
f 62/8/2 54/8/2 63/8/2
f 63/1/2 55/1/2 64/1/2
f 56/5/2 57/5/2 65/5/2
f 57/6/2 58/6/2 66/6/2
f 65/5/2 57/5/2 66/5/2
f 58/6/2 59/6/2 66/6/2
f 59/6/2 60/6/2 66/6/2
f 61/5/2 62/5/2 67/5/2
f 66/6/2 60/6/2 67/6/2
f 62/5/2 63/5/2 67/5/2
f 60/5/2 61/5/2 67/5/2
f 63/6/2 64/6/2 68/6/2
f 67/5/2 63/5/2 68/5/2
f 68/6/2 64/6/2 69/6/2
f 65/4/2 66/4/2 70/4/2
f 66/3/2 67/3/2 71/3/2
f 70/4/2 66/4/2 71/4/2
f 67/4/2 68/4/2 72/4/2
f 71/3/2 67/3/2 72/3/2
f 68/3/2 69/3/2 73/3/2
f 72/4/2 68/4/2 73/4/2
f 70/3/2 71/3/2 74/3/2
f 73/3/2 69/3/2 74/3/2
f 72/3/2 73/3/2 74/3/2
f 71/3/2 72/3/2 74/3/2
f 74/3/2 69/3/2 75/3/2
f 70/3/2 74/3/2 76/3/2
f 74/2/2 75/2/2 76/2/2
f 76/2/2 75/2/2 77/2/2
f 70/3/2 76/3/2 78/3/2
f 76/3/2 77/3/2 78/3/2
f 78/3/2 77/3/2 79/3/2
f 79/3/2 77/3/2 80/3/2
f 80/3/2 77/3/2 81/3/2
f 81/3/2 77/3/2 82/3/2
f 79/3/2 80/3/2 83/3/2
f 80/2/2 81/2/2 84/2/2
f 83/3/2 80/3/2 84/3/2
f 84/2/2 81/2/2 85/2/2
f 92/1/3 87/1/3 86/1/3
f 93/5/3 88/5/3 87/5/3
f 93/1/3 87/1/3 92/1/3
f 94/2/3 91/2/3 90/2/3
f 94/3/3 90/3/3 89/3/3
f 95/2/3 91/2/3 94/2/3
f 96/8/3 93/8/3 92/8/3
f 97/5/3 88/5/3 93/5/3
f 97/8/3 93/8/3 96/8/3
f 98/4/3 89/4/3 88/4/3
f 98/5/3 88/5/3 97/5/3
f 99/3/3 94/3/3 89/3/3
f 99/4/3 89/4/3 98/4/3
f 99/3/3 95/3/3 94/3/3
f 100/3/3 95/3/3 99/3/3
f 105/8/3 102/8/3 101/8/3
f 106/8/3 102/8/3 105/8/3
f 107/2/3 104/2/3 103/2/3
f 108/2/3 104/2/3 107/2/3
f 109/1/3 106/1/3 105/1/3
f 110/1/3 106/1/3 109/1/3
f 111/3/3 108/3/3 107/3/3
f 112/3/3 108/3/3 111/3/3
f 113/1/4 114/1/4 117/1/4
f 117/1/4 114/1/4 118/1/4
f 115/3/4 116/3/4 119/3/4
f 119/3/4 116/3/4 120/3/4
f 117/7/4 118/7/4 121/7/4
f 121/7/4 118/7/4 122/7/4
f 119/2/4 120/2/4 123/2/4
f 123/2/4 120/2/4 124/2/4
f 125/7/4 126/7/4 129/7/4
f 126/6/4 127/6/4 130/6/4
f 129/7/4 126/7/4 130/7/4
f 127/3/4 128/3/4 131/3/4
f 131/3/4 128/3/4 132/3/4
f 129/1/4 130/1/4 133/1/4
f 130/6/4 127/6/4 134/6/4
f 133/1/4 130/1/4 134/1/4
f 127/3/4 131/3/4 135/3/4
f 134/6/4 127/6/4 135/6/4
f 131/2/4 132/2/4 136/2/4
f 135/3/4 131/3/4 136/3/4
f 132/3/4 128/3/4 137/3/4
f 136/2/4 132/2/4 137/2/4
f 137/3/4 128/3/4 138/3/4
f 142/8/5 140/8/5 139/8/5
f 143/1/5 141/1/5 140/1/5
f 143/8/5 140/8/5 142/8/5
f 144/1/5 141/1/5 143/1/5
f 145/1/5 143/1/5 142/1/5
f 146/7/5 144/7/5 143/7/5
f 146/1/5 143/1/5 145/1/5
f 147/7/5 144/7/5 146/7/5
f 148/8/5 146/8/5 145/8/5
f 149/1/5 147/1/5 146/1/5
f 149/8/5 146/8/5 148/8/5
f 150/1/5 147/1/5 149/1/5
f 151/1/5 149/1/5 148/1/5
f 152/8/5 150/8/5 149/8/5
f 152/1/5 149/1/5 151/1/5
f 153/8/5 150/8/5 152/8/5
f 154/7/5 152/7/5 151/7/5
f 155/1/5 153/1/5 152/1/5
f 155/7/5 152/7/5 154/7/5
f 156/1/5 153/1/5 155/1/5
f 157/1/5 155/1/5 154/1/5
f 158/7/5 156/7/5 155/7/5
f 158/1/5 155/1/5 157/1/5
f 159/7/5 156/7/5 158/7/5
f 163/1/5 161/1/5 160/1/5
f 164/8/5 162/8/5 161/8/5
f 164/1/5 161/1/5 163/1/5
f 165/8/5 162/8/5 164/8/5
f 169/7/5 167/7/5 166/7/5
f 170/1/5 168/1/5 167/1/5
f 170/7/5 167/7/5 169/7/5
f 171/1/5 168/1/5 170/1/5
f 172/2/6 173/2/6 175/2/6
f 173/3/6 174/3/6 176/3/6
f 175/2/6 173/2/6 176/2/6
f 176/3/6 174/3/6 177/3/6
f 178/3/6 179/3/6 181/3/6
f 179/3/6 180/3/6 181/3/6
f 181/3/6 180/3/6 182/3/6
f 183/2/6 184/2/6 186/2/6
f 184/3/6 185/3/6 186/3/6
f 186/3/6 185/3/6 187/3/6
f 183/2/6 186/2/6 188/2/6
f 186/2/6 187/2/6 188/2/6
f 188/2/6 187/2/6 189/2/6
f 188/3/6 189/3/6 190/3/6
f 189/2/6 187/2/6 191/2/6
f 190/3/6 189/3/6 191/3/6
f 191/2/6 187/2/6 192/2/6
