# MagicaVoxel @ Ephtracy

# group
o 

# material
mtllib rocket_shoe.mtl
usemtl palette

# normals
vn -1 0 0
vn 1 0 0
vn 0 0 1
vn 0 0 -1
vn 0 -1 0
vn 0 1 0

# texcoords
vt 0.845703 0.5
vt 0.849609 0.5
vt 0.876953 0.5
vt 0.923828 0.5
vt 0.927734 0.5
vt 0.935547 0.5
vt 0.939453 0.5
vt 0.943359 0.5
vt 0.947266 0.5

# verts
v -0.4 0.5 0.3
v -0.4 0.5 -0.5
v -0.4 0.6 0.3
v -0.4 0.6 -0.5
v -0.4 0.7 0.1
v -0.4 0.7 -0.2
v -0.4 0.8 0.3
v -0.4 0.8 0.1
v -0.4 0.8 0
v -0.4 0.8 -0.1
v -0.4 0.8 -0.2
v -0.4 0.8 -0.3
v -0.4 0.8 -0.4
v -0.4 0.9 -0.1
v -0.4 0.9 -0.3
v -0.4 0.9 -0.4
v -0.4 1 0
v -0.4 1 -0.1
v -0.4 1 -0.2
v -0.4 1 -0.3
v -0.4 1 -0.4
v -0.4 1 -0.5
v -0.4 1.1 0
v -0.4 1.1 -0.1
v -0.4 1.1 -0.2
v -0.4 1.1 -0.4
v -0.4 1.1 -0.5
v -0.3 0.5 0.4
v -0.3 0.5 0.3
v -0.3 0.6 0.4
v -0.3 0.6 0.3
v -0.3 0.6 -0.5
v -0.3 0.6 -0.6
v -0.3 0.8 0.4
v -0.3 0.8 0.3
v -0.3 0.8 0.2
v -0.3 0.8 0.1
v -0.3 0.8 0
v -0.3 0.8 -0.5
v -0.3 0.8 -0.6
v -0.3 0.9 0.3
v -0.3 0.9 0.2
v -0.3 0.9 0
v -0.2 0.5 -0.5
v -0.2 0.5 -0.6
v -0.2 0.6 -0.5
v -0.2 0.6 -0.6
v -0.2 0.8 -0.5
v -0.2 0.8 -0.6
v -0.2 0.9 -0.5
v -0.2 0.9 -0.6
v 0 0.6 -0.5
v 0 0.6 -0.6
v 0 0.8 -0.5
v 0 0.8 -0.6
v 0.1 0.7 0.3
v 0.1 0.7 0.2
v 0.1 0.7 0
v 0.1 0.8 0.3
v 0.1 0.8 0.2
v 0.1 0.8 0
v -0.2 0.6 -0.5
v -0.2 0.6 -0.6
v -0.2 0.8 -0.5
v -0.2 0.8 -0.6
v 0 0.5 -0.5
v 0 0.5 -0.6
v 0 0.6 -0.5
v 0 0.6 -0.6
v 0 0.7 0.3
v 0 0.7 0.2
v 0 0.7 0
v 0 0.8 0.3
v 0 0.8 0.2
v 0 0.8 0
v 0 0.8 -0.5
v 0 0.8 -0.6
v 0 0.9 -0.5
v 0 0.9 -0.6
v 0.1 0.5 0.4
v 0.1 0.5 0.3
v 0.1 0.6 0.4
v 0.1 0.6 0.3
v 0.1 0.6 -0.5
v 0.1 0.6 -0.6
v 0.1 0.8 0.4
v 0.1 0.8 0.3
v 0.1 0.8 0.2
v 0.1 0.8 0
v 0.1 0.8 -0.5
v 0.1 0.8 -0.6
v 0.1 0.9 0.3
v 0.1 0.9 0
v 0.2 0.5 0.3
v 0.2 0.5 -0.5
v 0.2 0.6 0.3
v 0.2 0.6 -0.5
v 0.2 0.7 0.2
v 0.2 0.7 -0.2
v 0.2 0.8 0.3
v 0.2 0.8 0.2
v 0.2 0.8 0
v 0.2 0.8 -0.1
v 0.2 0.8 -0.2
v 0.2 0.8 -0.3
v 0.2 0.9 -0.2
v 0.2 0.9 -0.3
v 0.2 1.1 0
v 0.2 1.1 -0.1
v 0.2 1.1 -0.5
v -0.3 0.5 0.4
v -0.3 0.6 0.4
v -0.3 0.8 0.4
v 0.1 0.5 0.4
v 0.1 0.6 0.4
v 0.1 0.8 0.4
v -0.4 0.5 0.3
v -0.4 0.6 0.3
v -0.4 0.8 0.3
v -0.3 0.5 0.3
v -0.3 0.6 0.3
v -0.3 0.8 0.3
v -0.3 0.9 0.3
v -0.2 0.8 0.3
v -0.2 0.9 0.3
v 0.1 0.5 0.3
v 0.1 0.6 0.3
v 0.1 0.8 0.3
v 0.1 0.9 0.3
v 0.2 0.5 0.3
v 0.2 0.6 0.3
v 0.2 0.8 0.3
v -0.4 0.8 0
v -0.4 1 0
v -0.4 1.1 0
v -0.3 0.8 0
v -0.3 0.9 0
v -0.3 1 0
v 0 0.7 0
v 0 0.8 0
v 0.1 0.7 0
v 0.1 0.8 0
v 0.1 0.9 0
v 0.1 1.1 0
v 0.2 0.8 0
v 0.2 1.1 0
v 0 0.7 0.3
v 0 0.8 0.3
v 0.1 0.7 0.3
v 0.1 0.8 0.3
v -0.4 0.5 -0.5
v -0.4 0.6 -0.5
v -0.4 1 -0.5
v -0.4 1.1 -0.5
v -0.3 0.6 -0.5
v -0.3 0.8 -0.5
v -0.3 0.9 -0.5
v -0.3 1 -0.5
v -0.3 1.1 -0.5
v -0.2 0.5 -0.5
v -0.2 0.6 -0.5
v -0.2 0.8 -0.5
v -0.2 0.9 -0.5
v -0.2 1 -0.5
v 0 0.5 -0.5
v 0 0.6 -0.5
v 0 0.8 -0.5
v 0 0.9 -0.5
v 0.1 0.6 -0.5
v 0.1 0.8 -0.5
v 0.2 0.5 -0.5
v 0.2 0.6 -0.5
v 0.2 1.1 -0.5
v -0.3 0.6 -0.6
v -0.3 0.8 -0.6
v -0.2 0.5 -0.6
v -0.2 0.6 -0.6
v -0.2 0.8 -0.6
v -0.2 0.9 -0.6
v 0 0.5 -0.6
v 0 0.6 -0.6
v 0 0.8 -0.6
v 0 0.9 -0.6
v 0.1 0.6 -0.6
v 0.1 0.8 -0.6
v -0.3 0.5 0.4
v 0.1 0.5 0.4
v -0.4 0.5 0.3
v -0.3 0.5 0.3
v 0.1 0.5 0.3
v 0.2 0.5 0.3
v -0.4 0.5 -0.5
v -0.2 0.5 -0.5
v 0 0.5 -0.5
v 0.2 0.5 -0.5
v -0.2 0.5 -0.6
v 0 0.5 -0.6
v -0.3 0.6 -0.5
v -0.2 0.6 -0.5
v 0 0.6 -0.5
v 0.1 0.6 -0.5
v -0.3 0.6 -0.6
v -0.2 0.6 -0.6
v 0 0.6 -0.6
v 0.1 0.6 -0.6
v 0 0.8 0.3
v 0.1 0.8 0.3
v 0 0.8 0.2
v 0.1 0.8 0.2
v 0 0.8 0
v 0.1 0.8 0
v -0.2 0.8 -0.5
v 0 0.8 -0.5
v -0.2 0.8 -0.6
v 0 0.8 -0.6
v -0.2 0.6 -0.5
v 0 0.6 -0.5
v -0.2 0.6 -0.6
v 0 0.6 -0.6
v 0 0.7 0.3
v 0.1 0.7 0.3
v 0 0.7 0.2
v 0.1 0.7 0.2
v 0 0.7 0
v 0.1 0.7 0
v -0.3 0.8 0.4
v 0.1 0.8 0.4
v -0.4 0.8 0.3
v -0.3 0.8 0.3
v -0.2 0.8 0.3
v 0.1 0.8 0.3
v 0.2 0.8 0.3
v -0.3 0.8 0.2
v 0.1 0.8 0.2
v 0.2 0.8 0.2
v -0.4 0.8 0.1
v -0.3 0.8 0.1
v -0.4 0.8 0
v -0.3 0.8 0
v 0.1 0.8 0
v 0.2 0.8 0
v -0.3 0.8 -0.5
v -0.2 0.8 -0.5
v 0 0.8 -0.5
v 0.1 0.8 -0.5
v -0.3 0.8 -0.6
v -0.2 0.8 -0.6
v 0 0.8 -0.6
v 0.1 0.8 -0.6
v -0.3 0.9 0.3
v -0.2 0.9 0.3
v 0.1 0.9 0.3
v -0.3 0.9 0.2
v -0.2 0.9 0.2
v -0.1 0.9 0.2
v 0 0.9 0.2
v -0.1 0.9 0.1
v 0 0.9 0.1
v -0.3 0.9 0
v 0.1 0.9 0
v -0.2 0.9 -0.5
v 0 0.9 -0.5
v -0.2 0.9 -0.6
v 0 0.9 -0.6
v -0.4 1.1 0
v 0.1 1.1 0
v 0.2 1.1 0
v -0.4 1.1 -0.1
v -0.3 1.1 -0.1
v 0.1 1.1 -0.1
v 0.2 1.1 -0.1
v -0.4 1.1 -0.2
v -0.3 1.1 -0.2
v -0.4 1.1 -0.4
v -0.3 1.1 -0.4
v 0.1 1.1 -0.4
v -0.4 1.1 -0.5
v -0.3 1.1 -0.5
v 0.2 1.1 -0.5

# faces
f 3/2/1 2/2/1 1/2/1
f 4/2/1 2/2/1 3/2/1
f 5/3/1 4/3/1 3/3/1
f 6/3/1 4/3/1 5/3/1
f 7/3/1 5/3/1 3/3/1
f 8/6/1 6/6/1 5/6/1
f 8/3/1 5/3/1 7/3/1
f 9/6/1 6/6/1 8/6/1
f 10/6/1 6/6/1 9/6/1
f 11/3/1 4/3/1 6/3/1
f 11/6/1 6/6/1 10/6/1
f 12/3/1 4/3/1 11/3/1
f 13/3/1 4/3/1 12/3/1
f 14/6/1 10/6/1 9/6/1
f 14/3/1 12/3/1 11/3/1
f 14/3/1 11/3/1 10/3/1
f 15/6/1 13/6/1 12/6/1
f 15/3/1 12/3/1 14/3/1
f 16/3/1 4/3/1 13/3/1
f 16/6/1 13/6/1 15/6/1
f 17/6/1 15/6/1 14/6/1
f 17/6/1 14/6/1 9/6/1
f 18/6/1 15/6/1 17/6/1
f 19/6/1 15/6/1 18/6/1
f 20/3/1 16/3/1 15/3/1
f 20/6/1 15/6/1 19/6/1
f 21/3/1 4/3/1 16/3/1
f 21/3/1 16/3/1 20/3/1
f 22/3/1 4/3/1 21/3/1
f 23/3/1 18/3/1 17/3/1
f 24/6/1 19/6/1 18/6/1
f 24/3/1 18/3/1 23/3/1
f 25/3/1 20/3/1 19/3/1
f 25/6/1 19/6/1 24/6/1
f 25/3/1 21/3/1 20/3/1
f 26/6/1 22/6/1 21/6/1
f 26/3/1 21/3/1 25/3/1
f 27/6/1 22/6/1 26/6/1
f 30/2/1 29/2/1 28/2/1
f 31/2/1 29/2/1 30/2/1
f 34/3/1 31/3/1 30/3/1
f 35/3/1 31/3/1 34/3/1
f 39/5/1 33/5/1 32/5/1
f 40/5/1 33/5/1 39/5/1
f 41/6/1 36/6/1 35/6/1
f 42/3/1 38/3/1 37/3/1
f 42/6/1 36/6/1 41/6/1
f 42/3/1 37/3/1 36/3/1
f 43/3/1 38/3/1 42/3/1
f 46/5/1 45/5/1 44/5/1
f 47/5/1 45/5/1 46/5/1
f 50/5/1 49/5/1 48/5/1
f 51/5/1 49/5/1 50/5/1
f 54/5/1 53/5/1 52/5/1
f 55/5/1 53/5/1 54/5/1
f 59/3/1 57/3/1 56/3/1
f 60/6/1 58/6/1 57/6/1
f 60/3/1 57/3/1 59/3/1
f 61/6/1 58/6/1 60/6/1
f 62/5/2 63/5/2 64/5/2
f 64/5/2 63/5/2 65/5/2
f 66/5/2 67/5/2 68/5/2
f 68/5/2 67/5/2 69/5/2
f 70/2/2 71/2/2 73/2/2
f 71/1/2 72/1/2 74/1/2
f 73/2/2 71/2/2 74/2/2
f 74/1/2 72/1/2 75/1/2
f 76/5/2 77/5/2 78/5/2
f 78/5/2 77/5/2 79/5/2
f 80/2/2 81/2/2 82/2/2
f 82/2/2 81/2/2 83/2/2
f 82/3/2 83/3/2 86/3/2
f 86/3/2 83/3/2 87/3/2
f 84/5/2 85/5/2 90/5/2
f 90/5/2 85/5/2 91/5/2
f 88/3/2 89/3/2 92/3/2
f 87/3/2 88/3/2 92/3/2
f 92/3/2 89/3/2 93/3/2
f 94/2/2 95/2/2 96/2/2
f 96/2/2 95/2/2 97/2/2
f 96/3/2 97/3/2 98/3/2
f 98/3/2 97/3/2 99/3/2
f 96/3/2 98/3/2 100/3/2
f 98/6/2 99/6/2 101/6/2
f 100/3/2 98/3/2 101/3/2
f 101/6/2 99/6/2 102/6/2
f 102/6/2 99/6/2 103/6/2
f 99/3/2 97/3/2 104/3/2
f 103/6/2 99/6/2 104/6/2
f 104/3/2 97/3/2 105/3/2
f 104/6/2 105/6/2 106/6/2
f 103/3/2 104/3/2 106/3/2
f 105/3/2 97/3/2 107/3/2
f 106/6/2 105/6/2 107/6/2
f 102/6/2 103/6/2 108/6/2
f 103/3/2 106/3/2 109/3/2
f 108/6/2 103/6/2 109/6/2
f 106/3/2 107/3/2 109/3/2
f 107/3/2 97/3/2 110/3/2
f 109/3/2 107/3/2 110/3/2
f 114/2/3 112/2/3 111/2/3
f 115/3/3 113/3/3 112/3/3
f 115/2/3 112/2/3 114/2/3
f 116/3/3 113/3/3 115/3/3
f 120/2/3 118/2/3 117/2/3
f 121/3/3 119/3/3 118/3/3
f 121/2/3 118/2/3 120/2/3
f 122/3/3 119/3/3 121/3/3
f 124/6/3 123/6/3 122/6/3
f 125/6/3 123/6/3 124/6/3
f 128/3/3 125/3/3 124/3/3
f 129/3/3 125/3/3 128/3/3
f 130/2/3 127/2/3 126/2/3
f 131/3/3 128/3/3 127/3/3
f 131/2/3 127/2/3 130/2/3
f 132/3/3 128/3/3 131/3/3
f 136/6/3 134/6/3 133/6/3
f 137/6/3 134/6/3 136/6/3
f 138/3/3 135/3/3 134/3/3
f 138/6/3 134/6/3 137/6/3
f 141/8/3 140/8/3 139/8/3
f 142/8/3 140/8/3 141/8/3
f 143/3/3 138/3/3 137/3/3
f 144/3/3 135/3/3 138/3/3
f 144/3/3 138/3/3 143/3/3
f 145/6/3 143/6/3 142/6/3
f 145/6/3 144/6/3 143/6/3
f 146/6/3 144/6/3 145/6/3
f 147/3/4 148/3/4 149/3/4
f 149/3/4 148/3/4 150/3/4
f 151/2/4 152/2/4 155/2/4
f 152/3/4 153/3/4 155/3/4
f 155/3/4 153/3/4 156/3/4
f 156/3/4 153/3/4 157/3/4
f 153/6/4 154/6/4 158/6/4
f 157/3/4 153/3/4 158/3/4
f 158/6/4 154/6/4 159/6/4
f 151/2/4 155/2/4 160/2/4
f 160/2/4 155/2/4 161/2/4
f 156/3/4 157/3/4 162/3/4
f 157/6/4 158/6/4 163/6/4
f 162/3/4 157/3/4 163/3/4
f 158/3/4 159/3/4 164/3/4
f 163/6/4 158/6/4 164/6/4
f 161/9/4 162/9/4 166/9/4
f 166/9/4 162/9/4 167/9/4
f 163/3/4 164/3/4 168/3/4
f 165/2/4 166/2/4 169/2/4
f 167/3/4 168/3/4 170/3/4
f 165/2/4 169/2/4 171/2/4
f 169/3/4 170/3/4 172/3/4
f 171/2/4 169/2/4 172/2/4
f 164/3/4 159/3/4 173/3/4
f 172/3/4 170/3/4 173/3/4
f 168/3/4 164/3/4 173/3/4
f 170/3/4 168/3/4 173/3/4
f 174/5/4 175/5/4 177/5/4
f 177/5/4 175/5/4 178/5/4
f 176/5/4 177/5/4 180/5/4
f 180/5/4 177/5/4 181/5/4
f 178/5/4 179/5/4 182/5/4
f 182/5/4 179/5/4 183/5/4
f 181/5/4 182/5/4 184/5/4
f 184/5/4 182/5/4 185/5/4
f 189/2/5 187/2/5 186/2/5
f 190/2/5 187/2/5 189/2/5
f 192/2/5 189/2/5 188/2/5
f 192/2/5 191/2/5 190/2/5
f 192/2/5 190/2/5 189/2/5
f 193/2/5 191/2/5 192/2/5
f 194/2/5 191/2/5 193/2/5
f 195/2/5 191/2/5 194/2/5
f 196/5/5 194/5/5 193/5/5
f 197/5/5 194/5/5 196/5/5
f 202/5/5 199/5/5 198/5/5
f 203/5/5 199/5/5 202/5/5
f 204/5/5 201/5/5 200/5/5
f 205/5/5 201/5/5 204/5/5
f 208/3/5 207/3/5 206/3/5
f 209/3/5 207/3/5 208/3/5
f 210/3/5 209/3/5 208/3/5
f 211/3/5 209/3/5 210/3/5
f 214/5/5 213/5/5 212/5/5
f 215/5/5 213/5/5 214/5/5
f 216/5/6 217/5/6 218/5/6
f 218/5/6 217/5/6 219/5/6
f 220/2/6 221/2/6 222/2/6
f 222/2/6 221/2/6 223/2/6
f 222/1/6 223/1/6 224/1/6
f 224/1/6 223/1/6 225/1/6
f 226/3/6 227/3/6 229/3/6
f 229/3/6 227/3/6 230/3/6
f 230/3/6 227/3/6 231/3/6
f 228/3/6 229/3/6 233/3/6
f 231/3/6 232/3/6 234/3/6
f 234/3/6 232/3/6 235/3/6
f 228/3/6 233/3/6 236/3/6
f 236/3/6 233/3/6 237/3/6
f 236/6/6 237/6/6 238/6/6
f 238/6/6 237/6/6 239/6/6
f 234/6/6 235/6/6 240/6/6
f 240/6/6 235/6/6 241/6/6
f 242/5/6 243/5/6 246/5/6
f 246/5/6 243/5/6 247/5/6
f 244/5/6 245/5/6 248/5/6
f 248/5/6 245/5/6 249/5/6
f 250/6/6 251/6/6 253/6/6
f 251/3/6 252/3/6 254/3/6
f 253/6/6 251/6/6 254/6/6
f 254/3/6 252/3/6 255/3/6
f 255/3/6 252/3/6 256/3/6
f 253/3/6 254/3/6 257/3/6
f 254/3/6 255/3/6 257/3/6
f 255/6/6 256/6/6 257/6/6
f 256/3/6 252/3/6 258/3/6
f 257/6/6 256/6/6 258/6/6
f 253/3/6 257/3/6 259/3/6
f 257/3/6 258/3/6 259/3/6
f 258/3/6 252/3/6 260/3/6
f 259/3/6 258/3/6 260/3/6
f 261/5/6 262/5/6 263/5/6
f 263/5/6 262/5/6 264/5/6
f 265/3/6 266/3/6 268/3/6
f 268/3/6 266/3/6 269/3/6
f 266/6/6 267/6/6 270/6/6
f 269/3/6 266/3/6 270/3/6
f 270/6/6 267/6/6 271/6/6
f 268/6/6 269/6/6 272/6/6
f 269/4/6 270/4/6 273/4/6
f 272/6/6 269/6/6 273/6/6
f 272/3/6 273/3/6 274/3/6
f 273/4/6 270/4/6 275/4/6
f 274/3/6 273/3/6 275/3/6
f 270/3/6 271/3/6 276/3/6
f 275/4/6 270/4/6 276/4/6
f 274/6/6 275/6/6 277/6/6
f 275/3/6 276/3/6 278/3/6
f 277/6/6 275/6/6 278/6/6
f 276/3/6 271/3/6 279/3/6
f 278/3/6 276/3/6 279/3/6
