# MagicaVoxel @ Ephtracy

# group
o 

# material
mtllib arm.mtl
usemtl palette

# normals
vn -1 0 0
vn 1 0 0
vn 0 0 1
vn 0 0 -1
vn 0 -1 0
vn 0 1 0

# texcoords
vt 0.892578 0.5
vt 0.939453 0.5
vt 0.943359 0.5

# verts
v -0.9 1.3 2.23517e-08
v -0.9 1.3 -0.4
v -0.9 1.5 2.23517e-08
v -0.9 1.5 -0.4
v -0.9 1.9 2.23517e-08
v -0.9 1.9 -0.1
v -0.9 2 -0.3
v -0.9 2 -0.4
v -0.9 2.5 2.23517e-08
v -0.9 2.5 -0.1
v -0.9 2.7 2.23517e-08
v -0.9 2.7 -0.3
v -0.9 2.7 -0.4
v -0.6 1.3 2.23517e-08
v -0.6 1.3 -0.4
v -0.6 1.5 2.23517e-08
v -0.6 1.5 -0.4
v -0.6 2.7 2.23517e-08
v -0.6 2.7 -0.4
v -0.9 1.3 2.23517e-08
v -0.9 1.5 2.23517e-08
v -0.9 1.9 2.23517e-08
v -0.9 2.5 2.23517e-08
v -0.9 2.7 2.23517e-08
v -0.8 1.6 2.23517e-08
v -0.8 1.9 2.23517e-08
v -0.7 1.6 2.23517e-08
v -0.7 2.5 2.23517e-08
v -0.6 1.3 2.23517e-08
v -0.6 1.5 2.23517e-08
v -0.6 2.7 2.23517e-08
v -0.9 1.3 -0.4
v -0.9 1.5 -0.4
v -0.9 2 -0.4
v -0.9 2.7 -0.4
v -0.8 2 -0.4
v -0.8 2.7 -0.4
v -0.6 1.3 -0.4
v -0.6 1.5 -0.4
v -0.6 2.7 -0.4
v -0.9 1.3 2.23517e-08
v -0.6 1.3 2.23517e-08
v -0.9 1.3 -0.4
v -0.6 1.3 -0.4
v -0.9 2.7 2.23517e-08
v -0.6 2.7 2.23517e-08
v -0.9 2.7 -0.3
v -0.8 2.7 -0.3
v -0.9 2.7 -0.4
v -0.8 2.7 -0.4
v -0.6 2.7 -0.4

# faces
f 3/1/1 2/1/1 1/1/1
f 4/1/1 2/1/1 3/1/1
f 5/2/1 4/2/1 3/2/1
f 6/2/1 4/2/1 5/2/1
f 7/2/1 4/2/1 6/2/1
f 8/2/1 4/2/1 7/2/1
f 9/3/1 6/3/1 5/3/1
f 10/2/1 7/2/1 6/2/1
f 10/3/1 6/3/1 9/3/1
f 11/2/1 10/2/1 9/2/1
f 12/3/1 8/3/1 7/3/1
f 12/2/1 10/2/1 11/2/1
f 12/2/1 7/2/1 10/2/1
f 13/3/1 8/3/1 12/3/1
f 14/1/2 15/1/2 16/1/2
f 16/1/2 15/1/2 17/1/2
f 16/2/2 17/2/2 18/2/2
f 18/2/2 17/2/2 19/2/2
f 25/2/3 22/2/3 21/2/3
f 26/3/3 23/3/3 22/3/3
f 26/2/3 22/2/3 25/2/3
f 27/2/3 25/2/3 21/2/3
f 27/3/3 26/3/3 25/3/3
f 28/2/3 24/2/3 23/2/3
f 28/3/3 26/3/3 27/3/3
f 28/3/3 23/3/3 26/3/3
f 29/1/3 21/1/3 20/1/3
f 30/2/3 27/2/3 21/2/3
f 30/1/3 21/1/3 29/1/3
f 30/2/3 28/2/3 27/2/3
f 31/2/3 24/2/3 28/2/3
f 31/2/3 28/2/3 30/2/3
f 33/2/4 34/2/4 36/2/4
f 34/3/4 35/3/4 36/3/4
f 36/3/4 35/3/4 37/3/4
f 32/1/4 33/1/4 38/1/4
f 33/2/4 36/2/4 39/2/4
f 38/1/4 33/1/4 39/1/4
f 36/2/4 37/2/4 39/2/4
f 39/2/4 37/2/4 40/2/4
f 43/1/5 42/1/5 41/1/5
f 44/1/5 42/1/5 43/1/5
f 45/2/6 46/2/6 47/2/6
f 47/2/6 46/2/6 48/2/6
f 47/3/6 48/3/6 49/3/6
f 48/2/6 46/2/6 50/2/6
f 49/3/6 48/3/6 50/3/6
f 50/2/6 46/2/6 51/2/6
