# MagicaVoxel @ Ephtracy

# group
o 

# material
mtllib leg.mtl
usemtl palette

# normals
vn -1 0 0
vn 1 0 0
vn 0 0 1
vn 0 0 -1
vn 0 -1 0
vn 0 1 0

# texcoords
vt 0.845703 0.5
vt 0.849609 0.5
vt 0.927734 0.5
vt 0.939453 0.5
vt 0.943359 0.5
vt 0.947266 0.5

# verts
v -0.4 0.5 0.3
v -0.4 0.5 -0.5
v -0.4 0.6 0.3
v -0.4 0.6 -0.5
v -0.4 0.7 0.3
v -0.4 0.7 0
v -0.4 0.7 -0.3
v -0.4 0.8 0
v -0.4 0.8 -0.1
v -0.4 0.8 -0.3
v -0.4 0.8 -0.5
v -0.4 0.9 -0.4
v -0.4 0.9 -0.5
v -0.4 1.3 -0.4
v -0.4 1.3 -0.5
v -0.4 1.4 0
v -0.4 1.4 -0.1
v -0.4 1.4 -0.5
v -0.3 0.5 0.4
v -0.3 0.5 0.3
v -0.3 0.6 0.4
v -0.3 0.6 0.3
v -0.3 0.7 0.4
v -0.3 0.7 0.3
v -0.3 0.7 0.2
v -0.3 0.7 0
v -0.3 0.8 0.3
v -0.3 0.8 0.2
v -0.3 0.8 0
v 0 0.5 0.4
v 0 0.5 0.3
v 0 0.6 0.4
v 0 0.6 0.3
v 0 0.7 0.4
v 0 0.7 0.3
v 0 0.7 0.2
v 0 0.7 0
v 0 0.8 0.3
v 0 0.8 0.2
v 0 0.8 0
v 0.1 0.5 0.3
v 0.1 0.5 -0.5
v 0.1 0.6 0.3
v 0.1 0.6 0.2
v 0.1 0.6 -0.5
v 0.1 0.7 0.3
v 0.1 0.7 0.2
v 0.1 0.7 0
v 0.1 0.7 -0.2
v 0.1 0.7 -0.3
v 0.1 0.7 -0.5
v 0.1 0.8 0
v 0.1 0.8 -0.1
v 0.1 0.8 -0.2
v 0.1 0.8 -0.3
v 0.1 0.8 -0.5
v 0.1 0.9 0
v 0.1 0.9 -0.1
v 0.1 1 0
v 0.1 1 -0.1
v 0.1 1 -0.2
v 0.1 1 -0.3
v 0.1 1.3 -0.2
v 0.1 1.3 -0.3
v 0.1 1.4 0
v 0.1 1.4 -0.1
v 0.1 1.4 -0.3
v 0.1 1.4 -0.5
v -0.3 0.5 0.4
v -0.3 0.6 0.4
v -0.3 0.7 0.4
v -0.2 0.6 0.4
v -0.2 0.7 0.4
v 0 0.5 0.4
v 0 0.6 0.4
v 0 0.7 0.4
v -0.4 0.5 0.3
v -0.4 0.6 0.3
v -0.4 0.7 0.3
v -0.3 0.5 0.3
v -0.3 0.6 0.3
v -0.3 0.7 0.3
v -0.3 0.8 0.3
v -0.2 0.7 0.3
v 0 0.5 0.3
v 0 0.6 0.3
v 0 0.7 0.3
v 0 0.8 0.3
v 0.1 0.5 0.3
v 0.1 0.6 0.3
v 0.1 0.7 0.3
v -0.4 0.7 0
v -0.4 0.8 0
v -0.4 1.4 0
v -0.3 0.7 0
v -0.3 0.8 0
v -0.2 0.8 0
v -0.2 0.9 0
v -0.2 1.3 0
v -0.2 1.4 0
v -0.1 0.9 0
v -0.1 1.3 0
v 0 0.7 0
v 0 0.8 0
v 0 0.9 0
v 0 1 0
v 0 1.4 0
v 0.1 0.7 0
v 0.1 0.8 0
v 0.1 0.9 0
v 0.1 1 0
v 0.1 1.4 0
v -0.4 0.5 -0.5
v -0.4 0.6 -0.5
v -0.4 0.8 -0.5
v -0.4 0.9 -0.5
v -0.4 1.3 -0.5
v -0.4 1.4 -0.5
v -0.2 0.9 -0.5
v -0.2 1 -0.5
v -0.2 1.3 -0.5
v -0.2 1.4 -0.5
v -0.1 1 -0.5
v -0.1 1.4 -0.5
v 0 0.7 -0.5
v 0 0.8 -0.5
v 0 1.4 -0.5
v 0.1 0.5 -0.5
v 0.1 0.6 -0.5
v 0.1 0.7 -0.5
v 0.1 0.8 -0.5
v 0.1 1.4 -0.5
v -0.3 0.5 0.4
v 0 0.5 0.4
v -0.4 0.5 0.3
v -0.3 0.5 0.3
v 0 0.5 0.3
v 0.1 0.5 0.3
v -0.4 0.5 -0.5
v 0.1 0.5 -0.5
v -0.3 0.7 0.4
v -0.2 0.7 0.4
v 0 0.7 0.4
v -0.4 0.7 0.3
v -0.3 0.7 0.3
v -0.2 0.7 0.3
v 0 0.7 0.3
v 0.1 0.7 0.3
v -0.3 0.7 0.2
v 0 0.7 0.2
v 0.1 0.7 0.2
v -0.4 0.7 0
v -0.3 0.7 0
v 0 0.7 0
v 0.1 0.7 0
v -0.3 0.8 0.3
v 0 0.8 0.3
v -0.3 0.8 0.2
v 0 0.8 0.2
v -0.3 0.8 0
v -0.2 0.8 0
v 0 0.8 0
v -0.4 1.4 0
v -0.2 1.4 0
v 0 1.4 0
v 0.1 1.4 0
v -0.4 1.4 -0.1
v -0.3 1.4 -0.1
v -0.2 1.4 -0.1
v 0 1.4 -0.1
v 0.1 1.4 -0.1
v 0 1.4 -0.3
v 0.1 1.4 -0.3
v -0.3 1.4 -0.4
v -0.2 1.4 -0.4
v -0.1 1.4 -0.4
v 0 1.4 -0.4
v -0.4 1.4 -0.5
v -0.2 1.4 -0.5
v -0.1 1.4 -0.5
v 0 1.4 -0.5
v 0.1 1.4 -0.5

# faces
f 3/3/1 2/3/1 1/3/1
f 4/3/1 2/3/1 3/3/1
f 5/1/1 4/1/1 3/1/1
f 6/1/1 4/1/1 5/1/1
f 7/1/1 4/1/1 6/1/1
f 8/5/1 7/5/1 6/5/1
f 9/5/1 7/5/1 8/5/1
f 10/1/1 4/1/1 7/1/1
f 10/5/1 7/5/1 9/5/1
f 11/1/1 4/1/1 10/1/1
f 12/5/1 10/5/1 9/5/1
f 12/5/1 11/5/1 10/5/1
f 13/5/1 11/5/1 12/5/1
f 14/5/1 12/5/1 9/5/1
f 14/4/1 13/4/1 12/4/1
f 15/4/1 13/4/1 14/4/1
f 16/4/1 9/4/1 8/4/1
f 17/5/1 14/5/1 9/5/1
f 17/4/1 9/4/1 16/4/1
f 17/5/1 15/5/1 14/5/1
f 18/5/1 15/5/1 17/5/1
f 21/3/1 20/3/1 19/3/1
f 22/3/1 20/3/1 21/3/1
f 23/1/1 22/1/1 21/1/1
f 24/1/1 22/1/1 23/1/1
f 27/2/1 25/2/1 24/2/1
f 28/1/1 26/1/1 25/1/1
f 28/2/1 25/2/1 27/2/1
f 29/1/1 26/1/1 28/1/1
f 30/3/2 31/3/2 32/3/2
f 32/3/2 31/3/2 33/3/2
f 32/2/2 33/2/2 34/2/2
f 34/2/2 33/2/2 35/2/2
f 35/2/2 36/2/2 38/2/2
f 36/1/2 37/1/2 39/1/2
f 38/2/2 36/2/2 39/2/2
f 39/1/2 37/1/2 40/1/2
f 41/3/2 42/3/2 43/3/2
f 43/3/2 42/3/2 44/3/2
f 44/3/2 42/3/2 45/3/2
f 43/2/2 44/2/2 46/2/2
f 44/1/2 45/1/2 47/1/2
f 46/2/2 44/2/2 47/2/2
f 47/1/2 45/1/2 48/1/2
f 48/1/2 45/1/2 49/1/2
f 49/1/2 45/1/2 50/1/2
f 50/1/2 45/1/2 51/1/2
f 48/5/2 49/5/2 52/5/2
f 52/5/2 49/5/2 53/5/2
f 49/1/2 50/1/2 54/1/2
f 53/5/2 49/5/2 54/5/2
f 50/5/2 51/5/2 55/5/2
f 54/1/2 50/1/2 55/1/2
f 55/5/2 51/5/2 56/5/2
f 52/4/2 53/4/2 57/4/2
f 53/5/2 54/5/2 58/5/2
f 57/4/2 53/4/2 58/4/2
f 54/5/2 55/5/2 58/5/2
f 57/5/2 58/5/2 59/5/2
f 58/5/2 55/5/2 60/5/2
f 59/5/2 58/5/2 60/5/2
f 60/5/2 55/5/2 61/5/2
f 55/4/2 56/4/2 62/4/2
f 61/5/2 55/5/2 62/5/2
f 60/5/2 61/5/2 63/5/2
f 61/4/2 62/4/2 63/4/2
f 62/4/2 56/4/2 64/4/2
f 63/4/2 62/4/2 64/4/2
f 59/4/2 60/4/2 65/4/2
f 60/5/2 63/5/2 66/5/2
f 65/4/2 60/4/2 66/4/2
f 63/5/2 64/5/2 66/5/2
f 64/4/2 56/4/2 67/4/2
f 66/5/2 64/5/2 67/5/2
f 67/4/2 56/4/2 68/4/2
f 72/3/3 70/3/3 69/3/3
f 72/1/3 71/1/3 70/1/3
f 73/1/3 71/1/3 72/1/3
f 74/3/3 72/3/3 69/3/3
f 75/2/3 73/2/3 72/2/3
f 75/3/3 72/3/3 74/3/3
f 76/2/3 73/2/3 75/2/3
f 80/3/3 78/3/3 77/3/3
f 81/1/3 79/1/3 78/1/3
f 81/3/3 78/3/3 80/3/3
f 82/1/3 79/1/3 81/1/3
f 84/2/3 83/2/3 82/2/3
f 87/2/3 83/2/3 84/2/3
f 88/2/3 83/2/3 87/2/3
f 89/3/3 86/3/3 85/3/3
f 90/2/3 87/2/3 86/2/3
f 90/3/3 86/3/3 89/3/3
f 91/2/3 87/2/3 90/2/3
f 95/5/3 93/5/3 92/5/3
f 96/4/3 94/4/3 93/4/3
f 96/5/3 93/5/3 95/5/3
f 97/4/3 94/4/3 96/4/3
f 98/4/3 94/4/3 97/4/3
f 99/4/3 94/4/3 98/4/3
f 100/4/3 94/4/3 99/4/3
f 101/5/3 98/5/3 97/5/3
f 101/4/3 99/4/3 98/4/3
f 102/5/3 100/5/3 99/5/3
f 102/4/3 99/4/3 101/4/3
f 104/5/3 101/5/3 97/5/3
f 104/5/3 102/5/3 101/5/3
f 105/5/3 102/5/3 104/5/3
f 106/5/3 102/5/3 105/5/3
f 107/5/3 100/5/3 102/5/3
f 107/5/3 102/5/3 106/5/3
f 108/5/3 104/5/3 103/5/3
f 109/4/3 105/4/3 104/4/3
f 109/5/3 104/5/3 108/5/3
f 110/5/3 106/5/3 105/5/3
f 110/4/3 105/4/3 109/4/3
f 111/4/3 107/4/3 106/4/3
f 111/5/3 106/5/3 110/5/3
f 112/4/3 107/4/3 111/4/3
f 115/5/4 116/5/4 119/5/4
f 116/4/4 117/4/4 119/4/4
f 119/4/4 117/4/4 120/4/4
f 117/5/4 118/5/4 121/5/4
f 120/4/4 117/4/4 121/4/4
f 121/5/4 118/5/4 122/5/4
f 119/5/4 120/5/4 123/5/4
f 120/4/4 121/4/4 123/4/4
f 121/4/4 122/4/4 123/4/4
f 123/4/4 122/4/4 124/4/4
f 114/1/4 115/1/4 125/1/4
f 115/5/4 119/5/4 126/5/4
f 125/1/4 115/1/4 126/1/4
f 119/5/4 123/5/4 126/5/4
f 123/5/4 124/5/4 126/5/4
f 126/5/4 124/5/4 127/5/4
f 113/3/4 114/3/4 128/3/4
f 114/1/4 125/1/4 129/1/4
f 128/3/4 114/3/4 129/3/4
f 125/5/4 126/5/4 130/5/4
f 129/1/4 125/1/4 130/1/4
f 126/4/4 127/4/4 131/4/4
f 130/5/4 126/5/4 131/5/4
f 131/4/4 127/4/4 132/4/4
f 136/3/5 134/3/5 133/3/5
f 137/3/5 134/3/5 136/3/5
f 139/3/5 136/3/5 135/3/5
f 139/3/5 138/3/5 137/3/5
f 139/3/5 137/3/5 136/3/5
f 140/3/5 138/3/5 139/3/5
f 141/1/6 142/1/6 145/1/6
f 142/2/6 143/2/6 146/2/6
f 145/1/6 142/1/6 146/1/6
f 146/2/6 143/2/6 147/2/6
f 144/1/6 145/1/6 149/1/6
f 147/2/6 148/2/6 150/2/6
f 150/2/6 148/2/6 151/2/6
f 144/1/6 149/1/6 152/1/6
f 152/1/6 149/1/6 153/1/6
f 150/1/6 151/1/6 154/1/6
f 154/1/6 151/1/6 155/1/6
f 156/2/6 157/2/6 158/2/6
f 158/2/6 157/2/6 159/2/6
f 158/1/6 159/1/6 160/1/6
f 160/1/6 159/1/6 161/1/6
f 161/1/6 159/1/6 162/1/6
f 163/4/6 164/4/6 167/4/6
f 167/4/6 164/4/6 168/4/6
f 164/5/6 165/5/6 169/5/6
f 168/4/6 164/4/6 169/4/6
f 165/4/6 166/4/6 170/4/6
f 169/5/6 165/5/6 170/5/6
f 170/4/6 166/4/6 171/4/6
f 168/6/6 169/6/6 172/6/6
f 169/6/6 170/6/6 172/6/6
f 170/5/6 171/5/6 172/5/6
f 172/5/6 171/5/6 173/5/6
f 167/5/6 168/5/6 174/5/6
f 168/6/6 172/6/6 174/6/6
f 174/6/6 172/6/6 175/6/6
f 175/6/6 172/6/6 176/6/6
f 172/4/6 173/4/6 177/4/6
f 176/6/6 172/6/6 177/6/6
f 167/5/6 174/5/6 178/5/6
f 174/5/6 175/5/6 178/5/6
f 175/4/6 176/4/6 179/4/6
f 178/5/6 175/5/6 179/5/6
f 176/5/6 177/5/6 180/5/6
f 179/4/6 176/4/6 180/4/6
f 177/4/6 173/4/6 181/4/6
f 180/5/6 177/5/6 181/5/6
f 181/4/6 173/4/6 182/4/6
